<?xml version="1.0" encoding="UTF-8" standalone="no"?>
<!-- Created with Inkscape (http://www.inkscape.org/) -->

<svg
   width="91.440002mm"
   height="128.5mm"
   viewBox="0 0 91.440002 128.5"
   version="1.1"
   id="svg12"
   inkscape:version="1.1 (c68e22c387, 2021-05-23)"
   sodipodi:docname="WaporwareWTF.svg"
   xmlns:inkscape="http://www.inkscape.org/namespaces/inkscape"
   xmlns:sodipodi="http://sodipodi.sourceforge.net/DTD/sodipodi-0.dtd"
   xmlns="http://www.w3.org/2000/svg"
   xmlns:svg="http://www.w3.org/2000/svg">
  <sodipodi:namedview
     id="namedview14"
     pagecolor="#ffffff"
     bordercolor="#666666"
     borderopacity="1.0"
     inkscape:pageshadow="2"
     inkscape:pageopacity="0.0"
     inkscape:pagecheckerboard="0"
     inkscape:document-units="mm"
     showgrid="true"
     inkscape:zoom="1"
     inkscape:cx="173"
     inkscape:cy="176"
     inkscape:window-width="1284"
     inkscape:window-height="1041"
     inkscape:window-x="237"
     inkscape:window-y="0"
     inkscape:window-maximized="0"
     inkscape:current-layer="layer1">
    <inkscape:grid
       type="xygrid"
       id="grid845"
       snapvisiblegridlinesonly="true"
       units="mm"
       enabled="true"
       spacingx="5.0800001"
       spacingy="6.4250001"
       originx="0"
       originy="0"
       empspacing="3" />
  </sodipodi:namedview>
  <defs
     id="defs9">
    <inkscape:path-effect
       effect="transform_2pts"
       start="29.712693,15.460586"
       end="61.595017,15.460586"
       id="path-effect17473"
       is_visible="true"
       lpeversion="1"
       first_knot="1"
       last_knot="2"
       helper_size="3"
       stretch="1.05"
       offset="0"
       elastic="true"
       from_original_width="true"
       flip_vertical="false"
       flip_horizontal="false"
       lock_length="false"
       lock_angle="false" />
    <inkscape:path-effect
       effect="slice"
       start_point="45.653855,11.249297"
       end_point="45.653855,19.671875"
       center_point="45.653855,15.460586"
       id="path-effect17464"
       is_visible="true"
       lpeversion="1"
       allow_transforms="true" />
    <inkscape:path-effect
       effect="slice"
       start_point="61.643089,16.76"
       end_point="29.712693,15.460586"
       center_point="45.653855,15.460586"
       id="path-effect17455"
       is_visible="true"
       lpeversion="1"
       allow_transforms="true" />
    <inkscape:path-effect
       effect="roughen"
       id="path-effect17453"
       is_visible="false"
       lpeversion="1.1"
       method="size"
       max_segment_size="0.1"
       segments="2"
       displace_x="5;1"
       displace_y="0;1"
       global_randomize="0.1;634434020"
       handles="retract"
       shift_nodes="true"
       fixed_displacement="true"
       spray_tool_friendly="false" />
    <inkscape:path-effect
       effect="simplify"
       id="path-effect17451"
       is_visible="false"
       lpeversion="1"
       steps="1"
       threshold="0.05"
       smooth_angles="0"
       helper_size="5"
       simplify_individual_paths="false"
       simplify_just_coalesce="false" />
    <inkscape:path-effect
       effect="simplify"
       id="path-effect17449"
       is_visible="true"
       lpeversion="1"
       steps="1"
       threshold="0.05"
       smooth_angles="0"
       helper_size="5"
       simplify_individual_paths="false"
       simplify_just_coalesce="false" />
    <inkscape:path-effect
       effect="show_handles"
       id="path-effect17447"
       is_visible="true"
       lpeversion="1"
       nodes="true"
       handles="true"
       original_path="true"
       show_center_node="false"
       original_d="false"
       scale_nodes_and_handles="10" />
    <inkscape:path-effect
       effect="knot"
       id="path-effect17445"
       is_visible="true"
       lpeversion="1"
       switcher_size="15.4"
       interruption_width="3.4"
       prop_to_stroke_width="true"
       add_stroke_width="inkscape_1.0_and_up"
       both="false"
       inverse_width="true"
       add_other_stroke_width="inkscape_1.0_and_up"
       crossing_points_vector="" />
    <inkscape:path-effect
       effect="gears"
       id="path-effect17443"
       is_visible="true"
       lpeversion="1"
       teeth="10"
       phi="5"
       min_radius="5" />
    <inkscape:path-effect
       effect="envelope"
       id="path-effect17441"
       is_visible="true"
       lpeversion="1"
       yy="true"
       xx="true"
       bendpath1="M 29.712693,11.249297 H 61.595017"
       bendpath2="m 61.595017,11.249297 v 8.422578"
       bendpath3="M 29.712693,19.671875 H 61.595017"
       bendpath4="m 29.712693,11.249297 v 8.422578" />
    <inkscape:path-effect
       effect="dashed_stroke"
       id="path-effect17439"
       is_visible="true"
       lpeversion="1"
       numberdashes="2"
       holefactor="0.99999"
       splitsegments="true"
       halfextreme="true"
       unifysegment="false"
       message="Add &lt;b&gt;&quot;Fill Between Many LPE&quot;&lt;/b&gt; to add fill." />
    <inkscape:path-effect
       effect="construct_grid"
       id="path-effect17437"
       is_visible="true"
       lpeversion="1"
       nr_x="5"
       nr_y="5" />
    <inkscape:path-effect
       effect="bend_path"
       id="path-effect17435"
       is_visible="true"
       lpeversion="1"
       bendpath="M 29.712693,15.460586 H 61.595017"
       prop_scale="1"
       scale_y_rel="false"
       vertical="false"
       hide_knot="false" />
    <inkscape:path-effect
       effect="vonkoch"
       id="path-effect17433"
       is_visible="true"
       lpeversion="1"
       ref_path="M 29.712693,15.460586 H 61.595017"
       generator="m 29.712693,19.671875 h 10.627441 m 10.627442,0 h 10.627441"
       similar_only="false"
       nbgenerations="1"
       drawall="true"
       maxComplexity="1000" />
    <inkscape:path-effect
       effect="ruler"
       id="path-effect17431"
       is_visible="true"
       lpeversion="1"
       unit="px"
       mark_distance="1"
       mark_length="32"
       minor_mark_length="7"
       major_mark_steps="5"
       shift="0"
       offset="0"
       mark_dir="left"
       border_marks="both" />
    <inkscape:path-effect
       effect="sketch"
       id="path-effect17429"
       is_visible="true"
       lpeversion="1"
       nbiter_approxstrokes="5"
       strokelength="100"
       strokelength_rdm="0.3;1"
       strokeoverlap="0.3"
       strokeoverlap_rdm="0.3;1"
       ends_tolerance="0.1;1"
       parallel_offset="5;1"
       tremble_size="5;1"
       tremble_frequency="1"
       nbtangents="5"
       tgt_places_rdmness="1;1"
       tgtscale="10"
       tgtlength="100"
       tgtlength_rdm="0.3;1" />
    <inkscape:path-effect
       effect="curvestitching"
       id="path-effect17427"
       is_visible="true"
       lpeversion="1"
       count="5"
       startpoint_edge_variation="0;1"
       startpoint_spacing_variation="0;1"
       endpoint_edge_variation="0;1"
       endpoint_spacing_variation="0;1"
       strokepath="M 0,0 H 1"
       prop_scale="1"
       scale_y_rel="false" />
    <inkscape:path-effect
       effect="rough_hatches"
       id="path-effect17425"
       is_visible="true"
       lpeversion="1"
       direction="45.653855,10.460586 , 7.970581,0"
       dist_rdm="75;1"
       growth="0"
       do_bend="false"
       bender="45.653855,15.460586 , 5,0"
       bottom_edge_variation="0.8422578;1"
       top_edge_variation="0.8422578;1"
       bottom_tgt_variation="0;1"
       top_tgt_variation="0;1"
       scale_bf="1"
       scale_bb="1"
       scale_tf="1"
       scale_tb="1"
       top_smth_variation="0;1"
       bottom_smth_variation="0;1"
       fat_output="true"
       stroke_width_top="1"
       stroke_width_bottom="1"
       front_thickness="1"
       back_thickness="0.25" />
    <inkscape:path-effect
       effect="fillet_chamfer"
       id="path-effect17174"
       is_visible="true"
       lpeversion="1"
       satellites_param="F,0,0,1,0,5.0270833,0,1 @ F,0,0,1,0,5.0270833,0,1 @ F,0,0,1,0,5.0270833,0,1 @ F,0,0,1,0,5.0270833,0,1"
       unit="px"
       method="auto"
       mode="F"
       radius="19"
       chamfer_steps="1"
       flexible="false"
       use_knot_distance="true"
       apply_no_radius="true"
       apply_with_radius="true"
       only_selected="false"
       hide_knots="false" />
    <inkscape:path-effect
       effect="fillet_chamfer"
       id="path-effect17170"
       is_visible="true"
       lpeversion="1"
       satellites_param="F,0,0,1,0,2.1166667,0,1 @ F,0,0,1,0,2.1166667,0,1 @ F,0,0,1,0,2.1166667,0,1 @ F,0,0,1,0,2.1166667,0,1"
       unit="px"
       method="auto"
       mode="F"
       radius="8"
       chamfer_steps="1"
       flexible="false"
       use_knot_distance="true"
       apply_no_radius="true"
       apply_with_radius="true"
       only_selected="false"
       hide_knots="false" />
    <inkscape:path-effect
       effect="fillet_chamfer"
       id="path-effect5716"
       is_visible="true"
       lpeversion="1"
       satellites_param="F,0,0,1,0,4.2333333,0,1 @ F,0,0,1,0,4.2333333,0,1 @ F,0,0,1,0,4.2333333,0,1 @ F,0,0,1,0,4.2333333,0,1 @ F,0,0,1,0,4.2333333,0,1 @ F,0,0,1,0,4.2333333,0,1 @ F,0,0,1,0,4.2333333,0,1"
       unit="px"
       method="auto"
       mode="F"
       radius="16"
       chamfer_steps="1"
       flexible="false"
       use_knot_distance="true"
       apply_no_radius="true"
       apply_with_radius="true"
       only_selected="false"
       hide_knots="false" />
    <inkscape:path-effect
       effect="fillet_chamfer"
       id="path-effect5634"
       is_visible="true"
       lpeversion="1"
       satellites_param="F,0,0,1,0,0,0,1 @ F,0,0,1,0,0,0,1 @ F,0,0,1,0,0,0,1 @ F,0,0,1,0,0,0,1 @ F,0,0,1,0,0,0,1 @ F,0,0,1,0,0,0,1 | F,0,0,1,0,0,0,1 @ F,0,0,1,0,0,0,1 @ F,0,0,1,0,0,0,1 @ F,0,0,1,0,0,0,1 @ F,0,0,1,0,0,0,1 @ F,0,0,1,0,0,0,1 | F,0,0,1,0,0,0,1 @ F,0,0,1,0,0,0,1 @ F,0,0,1,0,0,0,1 @ F,0,0,1,0,0,0,1 @ F,0,0,1,0,0,0,1 @ F,0,0,1,0,0,0,1 | F,0,0,1,0,0,0,1 @ F,0,0,1,0,0,0,1 @ F,0,0,1,0,0,0,1 @ F,0,0,1,0,0,0,1 @ F,0,0,1,0,0,0,1 @ F,0,0,1,0,0,0,1"
       unit="px"
       method="auto"
       mode="F"
       radius="0"
       chamfer_steps="1"
       flexible="false"
       use_knot_distance="true"
       apply_no_radius="true"
       apply_with_radius="true"
       only_selected="false"
       hide_knots="false" />
    <inkscape:path-effect
       effect="fillet_chamfer"
       id="path-effect5607"
       is_visible="true"
       lpeversion="1"
       satellites_param="C,0,0,1,0,2.1166667,0,4 @ C,0,0,1,0,2.1166667,0,4 @ C,0,0,1,0,2.1166667,0,4 @ C,0,0,1,0,2.1166667,0,4"
       unit="px"
       method="auto"
       mode="F"
       radius="8"
       chamfer_steps="3"
       flexible="true"
       use_knot_distance="true"
       apply_no_radius="true"
       apply_with_radius="true"
       only_selected="false"
       hide_knots="false" />
    <inkscape:path-effect
       effect="fillet_chamfer"
       id="path-effect5491"
       is_visible="true"
       lpeversion="1"
       satellites_param="C,0,0,1,0,2.1166667,0,3 @ C,0,0,1,0,2.1166667,0,3 @ C,0,0,1,0,2.1166667,0,3 @ C,0,0,1,0,2.1166667,0,3 @ C,0,0,1,0,2.1166667,0,3 @ C,0,0,1,0,2.1166667,0,3 @ C,0,0,1,0,2.1166667,0,3"
       unit="px"
       method="auto"
       mode="F"
       radius="8"
       chamfer_steps="3"
       flexible="false"
       use_knot_distance="true"
       apply_no_radius="true"
       apply_with_radius="true"
       only_selected="false"
       hide_knots="false" />
    <inkscape:path-effect
       effect="fillet_chamfer"
       id="path-effect5146"
       is_visible="true"
       lpeversion="1"
       satellites_param="F,0,0,1,0,0,0,1 @ F,0,0,1,0,0,0,1 @ F,0,0,1,0,0,0,1 @ F,0,0,1,0,0,0,1 @ F,0,0,1,0,0,0,1 @ F,0,0,1,0,0,0,1 @ F,0,0,1,0,0,0,1 @ F,0,0,1,0,0,0,1 @ F,0,0,1,0,0,0,1 @ F,0,0,1,0,0,0,1 @ F,0,0,1,0,0,0,1 @ F,0,0,1,0,0,0,1 @ F,0,0,1,0,0,0,1 @ F,0,0,1,0,0,0,1 @ F,0,0,1,0,0,0,1 @ F,0,0,1,0,0,0,1 @ F,0,0,1,0,0,0,1 @ F,0,0,1,0,0,0,1 @ F,0,0,1,0,0,0,1 @ F,0,0,1,0,0,0,1 @ F,0,0,1,0,0,0,1 @ F,0,0,1,0,0,0,1 @ F,0,0,1,0,0,0,1 @ F,0,0,1,0,0,0,1 @ F,0,0,1,0,0,0,1 @ F,0,0,1,0,0,0,1 @ F,0,0,1,0,0,0,1 @ F,0,0,1,0,0,0,1"
       unit="px"
       method="auto"
       mode="F"
       radius="9"
       chamfer_steps="1"
       flexible="false"
       use_knot_distance="true"
       apply_no_radius="true"
       apply_with_radius="true"
       only_selected="false"
       hide_knots="false" />
    <inkscape:path-effect
       effect="fillet_chamfer"
       id="path-effect5141"
       is_visible="true"
       lpeversion="1"
       satellites_param="C,0,0,1,0,2.1166667,0,4 @ C,0,0,1,0,2.1166667,0,4 @ C,0,0,1,0,2.1166667,0,4 @ C,0,0,1,0,2.1166667,0,4"
       unit="px"
       method="auto"
       mode="F"
       radius="8"
       chamfer_steps="3"
       flexible="false"
       use_knot_distance="true"
       apply_no_radius="true"
       apply_with_radius="true"
       only_selected="false"
       hide_knots="false" />
    <inkscape:path-effect
       effect="fillet_chamfer"
       id="path-effect5135"
       is_visible="true"
       lpeversion="1"
       satellites_param="C,0,0,1,0,2.1166667,0,4 @ C,0,0,1,0,2.1166667,0,4 @ C,0,0,1,0,2.1166667,0,4 @ C,0,0,1,0,2.1166667,0,4"
       unit="px"
       method="auto"
       mode="F"
       radius="8"
       chamfer_steps="3"
       flexible="false"
       use_knot_distance="true"
       apply_no_radius="true"
       apply_with_radius="true"
       only_selected="false"
       hide_knots="false" />
    <inkscape:path-effect
       effect="fillet_chamfer"
       id="path-effect5005"
       is_visible="true"
       lpeversion="1"
       satellites_param="C,0,0,1,0,2.1166667,0,4 @ C,0,0,1,0,2.1166667,0,4 @ C,0,0,1,0,2.1166667,0,4 @ C,0,0,1,0,2.1166667,0,4"
       unit="px"
       method="auto"
       mode="F"
       radius="8"
       chamfer_steps="3"
       flexible="true"
       use_knot_distance="true"
       apply_no_radius="true"
       apply_with_radius="true"
       only_selected="false"
       hide_knots="false" />
    <inkscape:path-effect
       effect="fillet_chamfer"
       id="path-effect4967"
       is_visible="false"
       lpeversion="1"
       satellites_param="F,0,0,1,0,5.55625,0,1 @ F,0,0,1,0,5.55625,0,1 @ F,0,0,1,0,5.55625,0,1 @ F,0,0,1,0,5.55625,0,1"
       unit="px"
       method="auto"
       mode="F"
       radius="21"
       chamfer_steps="1"
       flexible="false"
       use_knot_distance="true"
       apply_no_radius="true"
       apply_with_radius="true"
       only_selected="false"
       hide_knots="false" />
  </defs>
  <g
     inkscape:label="Layer 1"
     inkscape:groupmode="layer"
     id="layer1"
     style="display:inline">
    <path
       style="display:inline;fill:#e6e6e6;stroke-width:0.249444"
       id="rect272"
       width="91.440002"
       height="128.5"
       x="3.5527137e-15"
       y="5.3290705e-15"
       inkscape:path-effect="#path-effect5005"
       d="M 2.1166667,0 H 89.323336 l 0.810013,0.16112166 0.686696,0.45883566 0.458836,0.68669608 0.161121,0.8100133 V 126.38333 l -0.161121,0.81002 -0.458836,0.68669 -0.686696,0.45884 L 89.323336,128.5 H 2.1166667 L 1.3066534,128.33888 0.61995732,127.88004 0.16112166,127.19335 0,126.38333 V 2.1166667 L 0.16112166,1.3066534 0.61995732,0.61995732 1.3066534,0.16112166 Z"
       sodipodi:type="rect" />
    <path
       id="rect4374"
       style="display:inline;fill:#333333;stroke-width:0.264583"
       d="m 66.517317,127.9707 h 19.365756 a 5.0270833,5.0270833 135 0 0 5.027083,-5.02708 v -14.58646 a 5.0270833,5.0270833 45 0 0 -5.027083,-5.02708 H 66.517317 a 5.0270833,5.0270833 135 0 0 -5.027083,5.02708 v 14.58646 a 5.0270833,5.0270833 45 0 0 5.027083,5.02708 z"
       inkscape:path-effect="#path-effect17174"
       inkscape:original-d="m 61.490234,127.9707 c 9.806641,0 19.613282,0 29.419922,0 0,-8.21354 0,-16.42708 0,-24.64062 -9.80664,0 -19.613281,0 -29.419922,0 0,8.21354 0,16.42708 0,24.64062 z" />
    <g
       id="text15939"
       style="font-size:4.23333px;line-height:1.25;fill:#333333;stroke-width:0.264583" />
    <g
       aria-label="Sng/Dual"
       id="text19213"
       style="font-size:4.23333px;line-height:1.25;text-align:center;text-anchor:middle;fill:#333333;stroke-width:0.264583"
       transform="translate(0,6.4250001)">
      <path
         d="m 8.0011722,24.8215 q 0,0.179834 -0.084749,0.355534 -0.082682,0.1757 -0.2335773,0.297656 -0.1653644,0.132291 -0.3865394,0.206705 -0.2191079,0.07441 -0.5291662,0.07441 -0.3327959,0 -0.5994461,-0.06201 Q 5.9031108,25.631786 5.6281924,25.50983 V 24.9972 h 0.028939 q 0.2335773,0.194303 0.5395015,0.299723 0.3059242,0.10542 0.5746414,0.10542 0.3803382,0 0.5911779,-0.142627 0.2129067,-0.142627 0.2129067,-0.380338 0,-0.204639 -0.1012857,-0.30179 -0.099219,-0.09715 -0.3038572,-0.150895 -0.1550291,-0.04134 -0.33693,-0.06821 -0.1798338,-0.02687 -0.3824053,-0.06821 -0.409277,-0.08682 -0.6077143,-0.295589 -0.1963703,-0.21084 -0.1963703,-0.54777 0,-0.386539 0.3265948,-0.632519 0.3265948,-0.248046 0.8288893,-0.248046 0.3245277,0 0.595312,0.06201 0.2707842,0.06201 0.4795568,0.152962 v 0.483691 H 7.8482101 Q 7.6725103,23.116179 7.3851896,23.019028 7.099936,22.919809 6.8002129,22.919809 q -0.3286618,0 -0.5291662,0.136426 -0.1984374,0.136425 -0.1984374,0.351399 0,0.192236 0.099219,0.30179 0.099219,0.109554 0.3493324,0.167432 0.1322916,0.02894 0.3762041,0.07028 0.2439126,0.04134 0.4134111,0.08475 0.3431312,0.09095 0.5167639,0.274918 0.1736327,0.183968 0.1736327,0.514697 z"
         id="path2667" />
      <path
         d="m 10.55812,25.699999 h -0.388607 v -1.314647 q 0,-0.159164 -0.0186,-0.297656 -0.0186,-0.14056 -0.06821,-0.219108 -0.05168,-0.08682 -0.1488279,-0.128158 -0.097152,-0.04341 -0.2521808,-0.04341 -0.1591633,0 -0.3327959,0.07855 -0.1736327,0.07855 -0.332796,0.200505 v 1.723924 H 8.62749 v -2.308901 h 0.3886064 v 0.256315 q 0.1819009,-0.150895 0.3762041,-0.235645 0.1943033,-0.08475 0.3989418,-0.08475 0.3741367,0 0.5705077,0.225309 0.19637,0.225309 0.19637,0.649056 z"
         id="path2669" />
      <path
         d="m 13.179146,25.437483 q 0,0.587044 -0.26665,0.861962 -0.26665,0.274918 -0.820621,0.274918 -0.183968,0 -0.359668,-0.02687 -0.173632,-0.0248 -0.343131,-0.07235 V 26.07827 h 0.02067 q 0.09508,0.03721 0.30179,0.09095 0.206705,0.05581 0.413411,0.05581 0.198437,0 0.328662,-0.04754 0.130224,-0.04754 0.202571,-0.132292 0.07235,-0.08062 0.103353,-0.194303 0.03101,-0.113688 0.03101,-0.254248 v -0.21084 q -0.1757,0.14056 -0.33693,0.21084 -0.159164,0.06821 -0.40721,0.06821 -0.413411,0 -0.657324,-0.297656 -0.241845,-0.299723 -0.241845,-0.843359 0,-0.297656 0.08268,-0.51263 0.08475,-0.21704 0.229443,-0.374137 0.134359,-0.146761 0.326595,-0.227376 0.192236,-0.08268 0.382405,-0.08268 0.200504,0 0.334863,0.04134 0.136426,0.03927 0.287321,0.121956 l 0.0248,-0.09922 h 0.363802 z m -0.388606,-0.37207 v -1.258837 q -0.155029,-0.07028 -0.289388,-0.09922 -0.132292,-0.03101 -0.264583,-0.03101 -0.320394,0 -0.504362,0.214974 -0.183968,0.214974 -0.183968,0.624251 0,0.388606 0.136426,0.589111 0.136426,0.200504 0.452685,0.200504 0.169499,0 0.338997,-0.06408 0.171566,-0.06615 0.314193,-0.1757 z"
         id="path2671" />
      <path
         d="m 15.339219,22.48366 -1.482079,3.844724 h -0.3576 l 1.475877,-3.844724 z"
         id="path2673" />
      <path
         d="m 18.497681,24.164177 q 0,0.419612 -0.183968,0.760676 -0.181901,0.341064 -0.485758,0.529166 -0.21084,0.130225 -0.471289,0.188102 -0.258382,0.05788 -0.682128,0.05788 h -0.777213 v -3.077846 h 0.768944 q 0.450618,0 0.715202,0.06615 0.26665,0.06408 0.450618,0.177767 0.314192,0.19637 0.489892,0.522965 0.1757,0.326595 0.1757,0.775146 z m -0.427881,-0.0062 q 0,-0.361734 -0.12609,-0.609781 -0.126091,-0.248047 -0.376204,-0.390673 -0.181901,-0.103353 -0.38654,-0.142627 -0.204638,-0.04134 -0.489892,-0.04134 h -0.384472 v 2.375046 h 0.384472 q 0.295589,0 0.514697,-0.04341 0.221175,-0.04341 0.405143,-0.16123 0.229443,-0.146761 0.343131,-0.386539 0.115755,-0.239779 0.115755,-0.599447 z"
         id="path2675" />
      <path
         d="m 21.042225,25.699999 h -0.388606 v -0.256315 q -0.19637,0.155029 -0.376204,0.237711 -0.179834,0.08268 -0.396875,0.08268 -0.363802,0 -0.566373,-0.221175 -0.202571,-0.223242 -0.202571,-0.65319 v -1.498615 h 0.388606 v 1.314647 q 0,0.1757 0.01654,0.30179 0.01654,0.124024 0.07028,0.212907 0.05581,0.09095 0.144694,0.132292 0.08888,0.04134 0.258382,0.04134 0.150895,0 0.328662,-0.07855 0.179834,-0.07855 0.334863,-0.200505 v -1.723924 h 0.388606 z"
         id="path2677" />
      <path
         d="M 23.60124,25.699999 H 23.2147 v -0.24598 q -0.05168,0.03514 -0.140559,0.09922 -0.08682,0.06201 -0.169499,0.09922 -0.09715,0.04754 -0.223242,0.07855 -0.12609,0.03307 -0.295589,0.03307 -0.312125,0 -0.529166,-0.206706 -0.217041,-0.206706 -0.217041,-0.527099 0,-0.262516 0.111621,-0.423747 0.113688,-0.163297 0.322461,-0.256314 0.210839,-0.09302 0.506428,-0.126091 0.295589,-0.03307 0.634586,-0.04961 v -0.05994 q 0,-0.132291 -0.04754,-0.219108 -0.04547,-0.08682 -0.132291,-0.136425 -0.08268,-0.04754 -0.198438,-0.06408 -0.115755,-0.01654 -0.241845,-0.01654 -0.152962,0 -0.341064,0.04134 -0.188102,0.03927 -0.388607,0.115755 h -0.02067 v -0.394808 q 0.113688,-0.03101 0.328661,-0.06821 0.214974,-0.03721 0.423747,-0.03721 0.243912,0 0.423746,0.04134 0.181901,0.03927 0.314193,0.136426 0.130224,0.09509 0.198437,0.24598 0.06821,0.150895 0.06821,0.374137 z m -0.38654,-0.56844 v -0.642855 q -0.177766,0.01034 -0.419612,0.03101 -0.239778,0.02067 -0.380338,0.05994 -0.167432,0.04754 -0.270784,0.148828 -0.103353,0.09922 -0.103353,0.274918 0,0.198437 0.119889,0.299723 0.119889,0.09922 0.365869,0.09922 0.204638,0 0.374137,-0.07855 0.169499,-0.08062 0.314192,-0.192236 z"
         id="path2679" />
      <path
         d="M 24.742255,25.699999 H 24.353648 V 22.48366 h 0.388607 z"
         id="path2681" />
    </g>
    <g
       aria-label="Front"
       id="text21321"
       style="font-size:6.35px;line-height:1.25;text-align:center;text-anchor:middle;fill:#333333;stroke-width:0.264583"
       transform="translate(0,6.4250001)">
      <path
         d="M 10.441844,40.903929 H 8.1071029 v 1.302246 h 2.0060791 v 0.545703 H 8.1071029 v 2.22312 h -0.613916 v -4.616772 h 2.9486571 z"
         id="path2656" />
      <path
         d="m 13.257176,42.147264 h -0.03101 q -0.130225,-0.03101 -0.254248,-0.04341 -0.120923,-0.0155 -0.288354,-0.0155 -0.269751,0 -0.520899,0.120923 -0.251147,0.117822 -0.483691,0.306958 v 2.458764 h -0.58291 v -3.463354 h 0.58291 v 0.511597 q 0.347265,-0.279053 0.610815,-0.393775 0.266651,-0.117822 0.542603,-0.117822 0.151928,0 0.220141,0.0093 0.06821,0.0062 0.204639,0.0279 z"
         id="path2658" />
      <path
         d="m 16.757737,43.244872 q 0,0.846459 -0.434082,1.336352 -0.434082,0.489893 -1.162719,0.489893 -0.734839,0 -1.168921,-0.489893 -0.430982,-0.489893 -0.430982,-1.336352 0,-0.84646 0.430982,-1.336353 0.434082,-0.492993 1.168921,-0.492993 0.728637,0 1.162719,0.492993 0.434082,0.489893 0.434082,1.336353 z m -0.601513,0 q 0,-0.672828 -0.26355,-0.998389 -0.26355,-0.328662 -0.731738,-0.328662 -0.47439,0 -0.73794,0.328662 -0.260449,0.325561 -0.260449,0.998389 0,0.651123 0.26355,0.989086 0.26355,0.334864 0.734839,0.334864 0.465088,0 0.728637,-0.331763 0.266651,-0.334863 0.266651,-0.992187 z"
         id="path2660" />
      <path
         d="m 20.555955,44.974998 h -0.582911 v -1.971972 q 0,-0.238745 -0.02791,-0.446485 -0.02791,-0.210839 -0.102319,-0.328662 -0.07751,-0.130224 -0.223242,-0.192236 -0.145728,-0.06511 -0.378272,-0.06511 -0.238745,0 -0.499194,0.117822 -0.260449,0.117822 -0.499194,0.300757 V 44.975 h -0.582911 v -3.463354 h 0.582911 v 0.384473 q 0.272851,-0.226343 0.564306,-0.353467 0.291455,-0.127124 0.598413,-0.127124 0.561206,0 0.855762,0.337964 0.294556,0.337964 0.294556,0.973584 z"
         id="path2662" />
      <path
         d="m 23.476707,44.943993 q -0.164331,0.04341 -0.359668,0.07131 -0.192236,0.0279 -0.344165,0.0279 -0.5302,0 -0.806152,-0.285254 -0.275952,-0.285253 -0.275952,-0.914672 v -1.841748 h -0.393775 v -0.489893 h 0.393775 v -0.995288 h 0.58291 v 0.995288 h 1.203027 v 0.489893 H 22.27368 v 1.578198 q 0,0.272851 0.0124,0.427881 0.0124,0.151928 0.08682,0.285254 0.06821,0.124023 0.186035,0.182934 0.120923,0.05581 0.365869,0.05581 0.142627,0 0.297656,-0.04031 0.15503,-0.04341 0.223242,-0.07131 h 0.03101 z"
         id="path2664" />
    </g>
    <g
       aria-label="Mod"
       id="text21325"
       style="font-size:6.35px;line-height:1.25;text-align:center;text-anchor:middle;fill:#333333;stroke-width:0.264583"
       transform="translate(0,6.4250001)">
      <path
         d="M 13.390501,64.25 H 12.776585 V 60.271948 L 11.492943,62.97876 H 11.127074 L 9.8527327,60.271948 V 64.25 H 9.2791243 v -4.616772 h 0.8371587 l 1.230932,2.570385 1.190625,-2.570385 h 0.852661 z"
         id="path2649" />
      <path
         d="m 17.535984,62.519873 q 0,0.84646 -0.434082,1.336353 -0.434082,0.489892 -1.162719,0.489892 -0.734839,0 -1.168921,-0.489892 -0.430982,-0.489893 -0.430982,-1.336353 0,-0.84646 0.430982,-1.336352 0.434082,-0.492994 1.168921,-0.492994 0.728637,0 1.162719,0.492994 0.434082,0.489892 0.434082,1.336352 z m -0.601513,0 q 0,-0.672827 -0.26355,-0.998389 -0.26355,-0.328662 -0.731738,-0.328662 -0.47439,0 -0.73794,0.328662 -0.260449,0.325562 -0.260449,0.998389 0,0.651123 0.26355,0.989087 0.26355,0.334863 0.734839,0.334863 0.465088,0 0.728637,-0.331762 0.266651,-0.334864 0.266651,-0.992188 z"
         id="path2651" />
      <path
         d="m 21.247385,64.25 h -0.58291 v -0.362769 q -0.251147,0.217041 -0.523999,0.337964 -0.272851,0.120923 -0.592212,0.120923 -0.620117,0 -0.985986,-0.47749 -0.362769,-0.47749 -0.362769,-1.32395 0,-0.440283 0.124024,-0.784448 0.127124,-0.344166 0.341064,-0.586011 0.21084,-0.235645 0.489893,-0.359668 0.282153,-0.124024 0.58291,-0.124024 0.272851,0 0.483691,0.05891 0.21084,0.05581 0.443384,0.176733 v -1.500684 h 0.58291 z m -0.58291,-0.852661 v -1.987476 q -0.235644,-0.10542 -0.42168,-0.145727 -0.186035,-0.04031 -0.406176,-0.04031 -0.489893,0 -0.762744,0.341065 -0.272852,0.341064 -0.272852,0.967382 0,0.617017 0.21084,0.939478 0.21084,0.31936 0.675928,0.31936 0.248046,0 0.502294,-0.10852 0.254249,-0.111621 0.47439,-0.285254 z"
         id="path2653" />
    </g>
    <g
       id="text21329"
       style="font-size:6.35px;line-height:1.25;text-align:center;text-anchor:middle;fill:#333333;stroke-width:0.264583" />
    <g
       aria-label="FM"
       id="text21413"
       style="font-size:6.35px;line-height:1.25;text-align:center;text-anchor:middle;fill:#333333;stroke-width:0.264583"
       transform="translate(0,6.4250001)">
      <path
         d="m 14.308275,79.453932 h -2.334742 v 1.302246 h 2.00608 v 0.545703 h -2.00608 v 2.223121 h -0.613916 v -4.616773 h 2.948658 z"
         id="path2643" />
      <path
         d="M 19.120384,83.525002 H 18.506468 V 79.54695 l -1.283643,2.706811 H 16.856956 L 15.582615,79.54695 v 3.978052 h -0.573608 v -4.616773 h 0.837158 l 1.230933,2.570386 1.190625,-2.570386 h 0.852661 z"
         id="path2645" />
    </g>
    <g
       aria-label="Front"
       id="text21417"
       style="font-size:2.82222px;line-height:1.25;text-align:center;text-anchor:middle;fill:#333333;stroke-width:0.264583">
      <path
         d="m 8.0274883,113.84064 h -1.037662 v 0.57877 h 0.8915901 v 0.24254 H 6.9898263 V 115.65 H 6.716975 v -2.0519 h 1.3105133 z"
         id="path2632" />
      <path
         d="m 9.278746,114.39323 h -0.01378 q -0.057878,-0.0138 -0.112999,-0.0193 -0.053743,-0.007 -0.1281575,-0.007 -0.1198892,0 -0.2315102,0.0537 -0.111621,0.0524 -0.2149738,0.13643 V 115.65 h -0.259071 v -1.53927 h 0.259071 v 0.22738 q 0.1543401,-0.12402 0.2714733,-0.17501 0.1185112,-0.0524 0.2411565,-0.0524 0.067524,0 0.097841,0.004 0.030317,0.003 0.09095,0.0124 z"
         id="path2634" />
      <path
         d="m 10.83455,114.88106 q 0,0.3762 -0.192925,0.59393 -0.192926,0.21773 -0.516764,0.21773 -0.3265951,0 -0.5195203,-0.21773 -0.1915472,-0.21773 -0.1915472,-0.59393 0,-0.37621 0.1915472,-0.59394 0.1929252,-0.21911 0.5195203,-0.21911 0.323838,0 0.516764,0.21911 0.192925,0.21773 0.192925,0.59394 z m -0.267339,0 q 0,-0.29904 -0.117134,-0.44373 -0.117133,-0.14607 -0.325216,-0.14607 -0.21084,0 -0.3279732,0.14607 -0.1157551,0.14469 -0.1157551,0.44373 0,0.28938 0.1171332,0.43959 0.1171331,0.14883 0.3265951,0.14883 0.206705,0 0.323838,-0.14745 0.118512,-0.14883 0.118512,-0.44097 z"
         id="path2636" />
      <path
         d="m 12.522645,115.65 h -0.259071 v -0.87643 q 0,-0.10611 -0.0124,-0.19844 -0.0124,-0.0937 -0.04547,-0.14607 -0.03445,-0.0579 -0.09922,-0.0854 -0.06477,-0.0289 -0.16812,-0.0289 -0.106109,0 -0.221864,0.0524 -0.115756,0.0524 -0.221864,0.13367 V 115.65 h -0.259071 v -1.53927 h 0.259071 v 0.17088 q 0.121267,-0.1006 0.250802,-0.1571 0.129536,-0.0565 0.265962,-0.0565 0.249424,0 0.380338,0.15021 0.130913,0.15021 0.130913,0.4327 z"
         id="path2638" />
      <path
         d="m 13.820757,115.63622 q -0.07304,0.0193 -0.159853,0.0317 -0.08544,0.0124 -0.152962,0.0124 -0.235644,0 -0.35829,-0.12678 -0.122645,-0.12678 -0.122645,-0.40652 v -0.81856 h -0.175011 v -0.21773 h 0.175011 v -0.44235 h 0.259071 v 0.44235 h 0.534679 v 0.21773 h -0.534679 v 0.70142 q 0,0.12127 0.0055,0.19017 0.0055,0.0675 0.03859,0.12678 0.03032,0.0551 0.08268,0.0813 0.05374,0.0248 0.162608,0.0248 0.06339,0 0.132291,-0.0179 0.0689,-0.0193 0.09922,-0.0317 h 0.01378 z"
         id="path2640" />
    </g>
    <g
       aria-label="Width"
       id="text21421"
       style="font-size:2.82222px;line-height:1.25;text-align:center;text-anchor:middle;fill:#333333;stroke-width:0.264583">
      <path
         d="M 18.873063,113.5981 18.339762,115.65 H 18.03246 l -0.431326,-1.70325 -0.421679,1.70325 h -0.300412 l -0.542947,-2.0519 h 0.279742 l 0.431325,1.70601 0.424436,-1.70601 h 0.276985 l 0.42857,1.72255 0.428569,-1.72255 z"
         id="path2621" />
      <path
         d="m 19.533142,113.85304 h -0.292144 v -0.26872 h 0.292144 z m -0.01654,1.79696 h -0.259071 v -1.53927 h 0.259071 z"
         id="path2623" />
      <path
         d="m 21.277737,115.65 h -0.259071 v -0.16123 q -0.111621,0.0965 -0.232888,0.15021 -0.121267,0.0537 -0.263205,0.0537 -0.275608,0 -0.438216,-0.21222 -0.16123,-0.21221 -0.16123,-0.58842 0,-0.19568 0.05512,-0.34864 0.0565,-0.15296 0.151584,-0.26045 0.09371,-0.10473 0.21773,-0.15985 0.125402,-0.0551 0.259071,-0.0551 0.121267,0 0.214974,0.0262 0.09371,0.0248 0.197059,0.0785 v -0.66697 h 0.259071 z m -0.259071,-0.37896 v -0.88332 q -0.104731,-0.0469 -0.187413,-0.0648 -0.08268,-0.0179 -0.180523,-0.0179 -0.21773,0 -0.338997,0.15158 -0.121267,0.15159 -0.121267,0.42995 0,0.27423 0.09371,0.41754 0.09371,0.14194 0.300413,0.14194 0.110243,0 0.223242,-0.0482 0.112999,-0.0496 0.210839,-0.12678 z"
         id="path2625" />
      <path
         d="m 22.586873,115.63622 q -0.07304,0.0193 -0.159853,0.0317 -0.08544,0.0124 -0.152962,0.0124 -0.235644,0 -0.358289,-0.12678 -0.122646,-0.12678 -0.122646,-0.40652 v -0.81856 h -0.17501 v -0.21773 h 0.17501 v -0.44235 h 0.259071 v 0.44235 h 0.534679 v 0.21773 h -0.534679 v 0.70142 q 0,0.12127 0.0055,0.19017 0.0055,0.0675 0.03858,0.12678 0.03032,0.0551 0.08268,0.0813 0.05374,0.0248 0.162608,0.0248 0.06339,0 0.132292,-0.0179 0.0689,-0.0193 0.09922,-0.0317 h 0.01378 z"
         id="path2627" />
      <path
         d="m 24.186774,115.65 h -0.259071 v -0.87643 q 0,-0.10611 -0.0124,-0.19844 -0.0124,-0.0937 -0.04547,-0.14607 -0.03445,-0.0579 -0.09922,-0.0854 -0.06477,-0.0289 -0.168121,-0.0289 -0.106109,0 -0.221864,0.0524 -0.115755,0.0524 -0.221864,0.13367 V 115.65 h -0.259071 v -2.14422 h 0.259071 v 0.77583 q 0.121267,-0.1006 0.250803,-0.1571 0.129535,-0.0565 0.265961,-0.0565 0.249425,0 0.380338,0.15021 0.130914,0.15021 0.130914,0.4327 z"
         id="path2629" />
    </g>
    <g
       aria-label="Rear"
       id="text21425"
       style="font-size:2.82222px;line-height:1.25;text-align:center;text-anchor:middle;fill:#333333;stroke-width:0.264583">
      <path
         d="m 29.216341,115.65 h -0.354155 l -0.686263,-0.8158 H 27.791451 V 115.65 H 27.5186 v -2.0519 h 0.574641 q 0.186035,0 0.310058,0.0248 0.124024,0.0234 0.223242,0.0854 0.111621,0.0703 0.173633,0.17776 0.06339,0.10611 0.06339,0.2701 0,0.22186 -0.111621,0.37207 -0.111621,0.14883 -0.307302,0.22462 z m -0.638031,-1.4745 q 0,-0.0882 -0.03169,-0.15572 -0.03032,-0.0689 -0.101974,-0.11575 -0.05926,-0.04 -0.14056,-0.0551 -0.0813,-0.0165 -0.191547,-0.0165 h -0.321083 v 0.77446 h 0.275607 q 0.129536,0 0.225998,-0.0221 0.09646,-0.0234 0.163987,-0.0854 0.06201,-0.0579 0.09095,-0.13229 0.03032,-0.0758 0.03032,-0.19155 z"
         id="path2612" />
      <path
         d="m 30.679817,114.90724 h -1.134125 q 0,0.14194 0.04272,0.24805 0.04272,0.10473 0.117134,0.17225 0.07166,0.0662 0.169498,0.0992 0.09922,0.0331 0.21773,0.0331 0.157096,0 0.315571,-0.062 0.159852,-0.0634 0.227376,-0.12402 h 0.01378 v 0.28249 q -0.130913,0.0551 -0.267339,0.0923 -0.136426,0.0372 -0.286632,0.0372 -0.383094,0 -0.598068,-0.20671 -0.214974,-0.20808 -0.214974,-0.58979 0,-0.37759 0.205328,-0.59945 0.206705,-0.22187 0.542946,-0.22187 0.311437,0 0.479557,0.18191 0.169499,0.1819 0.169499,0.51676 z m -0.252181,-0.19844 q -0.0014,-0.20395 -0.103353,-0.31557 -0.100596,-0.11162 -0.307302,-0.11162 -0.208084,0 -0.332107,0.12265 -0.122645,0.12264 -0.139182,0.30454 z"
         id="path2614" />
      <path
         d="m 32.268694,115.65 h -0.257693 v -0.16398 q -0.03445,0.0234 -0.09371,0.0661 -0.05788,0.0413 -0.112999,0.0661 -0.06477,0.0317 -0.148828,0.0524 -0.08406,0.022 -0.197059,0.022 -0.208084,0 -0.352778,-0.1378 -0.144694,-0.13781 -0.144694,-0.3514 0,-0.17501 0.07441,-0.2825 0.07579,-0.10887 0.214974,-0.17088 0.14056,-0.062 0.337619,-0.0841 0.19706,-0.022 0.423058,-0.0331 v -0.04 q 0,-0.0882 -0.03169,-0.14607 -0.03032,-0.0579 -0.0882,-0.091 -0.05512,-0.0317 -0.132291,-0.0427 -0.07717,-0.011 -0.16123,-0.011 -0.101975,0 -0.227377,0.0276 -0.125401,0.0262 -0.259071,0.0772 h -0.01378 v -0.2632 q 0.07579,-0.0207 0.219108,-0.0455 0.143316,-0.0248 0.282498,-0.0248 0.162608,0 0.282497,0.0276 0.121267,0.0262 0.209462,0.091 0.08682,0.0634 0.132291,0.16398 0.04548,0.1006 0.04548,0.24943 z m -0.257693,-0.37896 v -0.42857 q -0.118511,0.007 -0.279742,0.0207 -0.159852,0.0138 -0.253559,0.04 -0.111621,0.0317 -0.180523,0.0992 -0.0689,0.0662 -0.0689,0.18328 0,0.13229 0.07993,0.19982 0.07993,0.0661 0.243912,0.0661 0.136426,0 0.249425,-0.0524 0.112999,-0.0537 0.209462,-0.12816 z"
         id="path2616" />
      <path
         d="m 33.728035,114.39323 h -0.01378 q -0.05788,-0.0138 -0.112999,-0.0193 -0.05374,-0.007 -0.128158,-0.007 -0.119889,0 -0.23151,0.0537 -0.111621,0.0524 -0.214974,0.13643 V 115.65 h -0.259071 v -1.53927 h 0.259071 v 0.22738 q 0.15434,-0.12402 0.271474,-0.17501 0.118511,-0.0524 0.241156,-0.0524 0.06752,0 0.09784,0.004 0.03032,0.003 0.09095,0.0124 z"
         id="path2618" />
    </g>
    <g
       aria-label="FM"
       id="text21429"
       style="font-size:2.82222px;line-height:1.25;text-align:center;text-anchor:middle;fill:#333333;stroke-width:0.264583">
      <path
         d="m 40.225903,113.84064 h -1.037662 v 0.57877 h 0.89159 v 0.24254 h -0.89159 V 115.65 H 38.91539 v -2.0519 h 1.310513 z"
         id="path2607" />
      <path
         d="m 42.364617,115.65 h -0.272852 v -1.76802 l -0.570507,1.20303 H 41.35865 l -0.566374,-1.20303 V 115.65 h -0.254937 v -2.0519 h 0.37207 l 0.547081,1.1424 0.529166,-1.1424 h 0.378961 z"
         id="path2609" />
    </g>
    <g
       aria-label="V/Oct"
       id="text21433"
       style="font-size:2.82222px;line-height:1.25;text-align:center;text-anchor:middle;fill:#333333;stroke-width:0.264583">
      <path
         d="M 48.686094,113.5981 47.939198,115.65 H 47.575396 L 46.8285,113.5981 h 0.292144 l 0.643543,1.80523 0.643544,-1.80523 z"
         id="path2596" />
      <path
         d="m 49.907035,113.50578 -0.988053,2.56314 h -0.2384 l 0.983918,-2.56314 z"
         id="path2598" />
      <path
         d="m 51.808726,113.83375 q 0.125402,0.1378 0.191547,0.33762 0.06752,0.19981 0.06752,0.45337 0,0.25356 -0.0689,0.45475 -0.06752,0.19982 -0.190169,0.33349 -0.126779,0.13918 -0.300412,0.20946 -0.172254,0.0703 -0.394118,0.0703 -0.216352,0 -0.394119,-0.0717 -0.176389,-0.0717 -0.300412,-0.20808 -0.124023,-0.13643 -0.191547,-0.33486 -0.06615,-0.19844 -0.06615,-0.45338 0,-0.2508 0.06615,-0.44924 0.06614,-0.19981 0.192925,-0.34175 0.121267,-0.13505 0.300412,-0.20671 0.180523,-0.0716 0.392741,-0.0716 0.220486,0 0.395496,0.073 0.176389,0.0717 0.299034,0.20533 z m -0.0248,0.79099 q 0,-0.39963 -0.179145,-0.61598 -0.179145,-0.21773 -0.489203,-0.21773 -0.312815,0 -0.49196,0.21773 -0.177766,0.21635 -0.177766,0.61598 0,0.40377 0.1819,0.61874 0.181901,0.2136 0.487826,0.2136 0.305924,0 0.486447,-0.2136 0.181901,-0.21497 0.181901,-0.61874 z"
         id="path2600" />
      <path
         d="m 53.618089,115.55354 q -0.129536,0.062 -0.246669,0.0965 -0.115755,0.0344 -0.246668,0.0344 -0.166743,0 -0.305925,-0.0482 -0.139181,-0.0496 -0.2384,-0.14883 -0.100597,-0.0992 -0.155718,-0.2508 -0.05512,-0.15158 -0.05512,-0.35416 0,-0.37758 0.206706,-0.59255 0.208083,-0.21497 0.548459,-0.21497 0.132291,0 0.259071,0.0372 0.128157,0.0372 0.234266,0.0909 v 0.28801 h -0.01378 q -0.118512,-0.0923 -0.245291,-0.14194 -0.125401,-0.0496 -0.245291,-0.0496 -0.220486,0 -0.348643,0.14882 -0.126779,0.14745 -0.126779,0.43408 0,0.27837 0.124023,0.42857 0.125401,0.14883 0.351399,0.14883 0.07855,0 0.159853,-0.0207 0.0813,-0.0207 0.146072,-0.0537 0.0565,-0.0289 0.106108,-0.0606 0.04961,-0.0331 0.07855,-0.0565 h 0.01378 z"
         id="path2602" />
      <path
         d="m 54.749458,115.63622 q -0.07304,0.0193 -0.159853,0.0317 -0.08544,0.0124 -0.152962,0.0124 -0.235644,0 -0.358289,-0.12678 -0.122646,-0.12678 -0.122646,-0.40652 v -0.81856 h -0.17501 v -0.21773 h 0.17501 v -0.44235 h 0.259071 v 0.44235 h 0.534679 v 0.21773 h -0.534679 v 0.70142 q 0,0.12127 0.0055,0.19017 0.0055,0.0675 0.03858,0.12678 0.03032,0.0551 0.08268,0.0813 0.05374,0.0248 0.162608,0.0248 0.06339,0 0.132292,-0.0179 0.0689,-0.0193 0.09922,-0.0317 h 0.01378 z"
         id="path2604" />
    </g>
    <g
       aria-label="Noise Out"
       id="text21437"
       style="font-size:2.11667px;line-height:1.25;text-align:center;text-anchor:middle;fill:#333333;stroke-width:0.264583">
      <path
         d="m 74.674514,114.95026 h -0.253215 l -0.729672,-1.37667 v 1.37667 h -0.191203 v -1.53893 h 0.317293 l 0.665594,1.25677 v -1.25677 h 0.191203 z"
         style="fill:#cccccc"
         id="path2579" />
      <path
         d="m 76.05221,114.37355 q 0,0.28215 -0.144694,0.44545 -0.144695,0.1633 -0.387574,0.1633 -0.244947,0 -0.389641,-0.1633 -0.143661,-0.1633 -0.143661,-0.44545 0,-0.28216 0.143661,-0.44546 0.144694,-0.16433 0.389641,-0.16433 0.242879,0 0.387574,0.16433 0.144694,0.1633 0.144694,0.44546 z m -0.200505,0 q 0,-0.22428 -0.08785,-0.3328 -0.08785,-0.10955 -0.243913,-0.10955 -0.15813,0 -0.24598,0.10955 -0.08682,0.10852 -0.08682,0.3328 0,0.21704 0.08785,0.32969 0.08785,0.11162 0.244947,0.11162 0.155029,0 0.242879,-0.11058 0.08888,-0.11163 0.08888,-0.33073 z"
         style="fill:#cccccc"
         id="path2581" />
      <path
         d="m 76.56174,113.60253 h -0.219108 v -0.20154 h 0.219108 z m -0.0124,1.34773 h -0.194304 v -1.15446 h 0.194304 z"
         style="fill:#cccccc"
         id="path2583" />
      <path
         d="m 77.758568,114.61746 q 0,0.15813 -0.131258,0.25942 -0.130225,0.10128 -0.356568,0.10128 -0.128158,0 -0.235645,-0.03 -0.106454,-0.031 -0.178801,-0.0672 v -0.21808 h 0.01034 q 0.09198,0.0692 0.204639,0.11059 0.112654,0.0403 0.216007,0.0403 0.128158,0 0.200505,-0.0413 0.07235,-0.0413 0.07235,-0.13023 0,-0.0682 -0.03927,-0.10335 -0.03927,-0.0351 -0.150895,-0.0599 -0.04134,-0.009 -0.108521,-0.0217 -0.06615,-0.0124 -0.120923,-0.0269 -0.151929,-0.0403 -0.216008,-0.11782 -0.06305,-0.0785 -0.06305,-0.19224 0,-0.0713 0.02894,-0.13436 0.02997,-0.063 0.08992,-0.11265 0.05788,-0.0486 0.146761,-0.0765 0.08992,-0.0289 0.200505,-0.0289 0.103353,0 0.208773,0.0258 0.106454,0.0248 0.176734,0.061 v 0.20774 h -0.01033 q -0.07442,-0.0548 -0.180868,-0.092 -0.106454,-0.0382 -0.208773,-0.0382 -0.106454,0 -0.179835,0.0413 -0.07338,0.0403 -0.07338,0.12092 0,0.0713 0.04444,0.10749 0.04341,0.0362 0.14056,0.0589 0.05374,0.0124 0.119889,0.0248 0.06718,0.0124 0.111622,0.0227 0.135392,0.031 0.208773,0.10646 0.07338,0.0765 0.07338,0.20257 z"
         style="fill:#cccccc"
         id="path2585" />
      <path
         d="m 79.002939,114.39318 h -0.850596 q 0,0.10646 0.03204,0.18604 0.03204,0.0785 0.08785,0.12919 0.05374,0.0496 0.127124,0.0744 0.07441,0.0248 0.163298,0.0248 0.117822,0 0.236678,-0.0465 0.11989,-0.0475 0.170533,-0.093 h 0.01033 v 0.21188 q -0.09819,0.0413 -0.200505,0.0692 -0.102319,0.0279 -0.214974,0.0279 -0.287322,0 -0.448552,-0.15503 -0.161231,-0.15606 -0.161231,-0.44235 0,-0.28319 0.153996,-0.44959 0.15503,-0.1664 0.407211,-0.1664 0.233578,0 0.359668,0.13643 0.127125,0.13643 0.127125,0.38757 z m -0.189136,-0.14882 q -10e-4,-0.15297 -0.07751,-0.23668 -0.07545,-0.0837 -0.230477,-0.0837 -0.156063,0 -0.249081,0.092 -0.09198,0.092 -0.104387,0.22841 z"
         style="fill:#cccccc"
         id="path2587" />
      <path
         d="m 75.634147,116.2339 q 0.09405,0.10335 0.14366,0.25322 0.05064,0.14986 0.05064,0.34003 0,0.19017 -0.05168,0.34106 -0.05064,0.14986 -0.142627,0.25012 -0.09508,0.10438 -0.22531,0.15709 -0.129191,0.0527 -0.295589,0.0527 -0.162265,0 -0.29559,-0.0537 -0.132292,-0.0537 -0.22531,-0.15606 -0.09302,-0.10232 -0.14366,-0.25115 -0.04961,-0.14883 -0.04961,-0.34003 0,-0.18811 0.04961,-0.33693 0.04961,-0.14987 0.144694,-0.25632 0.09095,-0.10129 0.225309,-0.15503 0.135393,-0.0537 0.294557,-0.0537 0.165364,0 0.296623,0.0548 0.132292,0.0538 0.224276,0.154 z m -0.0186,0.59325 q 0,-0.29973 -0.134359,-0.46199 -0.134359,-0.1633 -0.366903,-0.1633 -0.234611,0 -0.36897,0.1633 -0.133326,0.16226 -0.133326,0.46199 0,0.30282 0.136426,0.46405 0.136426,0.1602 0.36587,0.1602 0.229444,0 0.364836,-0.1602 0.136426,-0.16123 0.136426,-0.46405 z"
         style="fill:#cccccc"
         id="path2589" />
      <path
         d="m 77.094525,117.59609 h -0.194304 v -0.12815 q -0.09819,0.0775 -0.188102,0.11885 -0.08992,0.0413 -0.198438,0.0413 -0.181901,0 -0.283187,-0.11058 -0.101286,-0.11163 -0.101286,-0.3266 v -0.74931 h 0.194303 v 0.65733 q 0,0.0879 0.0083,0.15089 0.0083,0.062 0.03514,0.10645 0.02791,0.0455 0.07235,0.0662 0.04444,0.0207 0.129191,0.0207 0.07545,0 0.164331,-0.0393 0.08992,-0.0393 0.167432,-0.10026 v -0.86196 h 0.194304 z"
         style="fill:#cccccc"
         id="path2591" />
      <path
         d="m 78.076379,117.58576 q -0.05478,0.0145 -0.11989,0.0238 -0.06408,0.009 -0.114722,0.009 -0.176733,0 -0.268718,-0.0951 -0.09198,-0.0951 -0.09198,-0.30489 v -0.61392 h -0.131258 v -0.1633 h 0.131258 v -0.33176 h 0.194304 v 0.33176 h 0.40101 v 0.1633 h -0.40101 v 0.52607 q 0,0.0909 0.0041,0.14262 0.0041,0.0507 0.02894,0.0951 0.02274,0.0413 0.06201,0.061 0.04031,0.0186 0.121956,0.0186 0.04754,0 0.09922,-0.0134 0.05168,-0.0145 0.07441,-0.0238 h 0.01034 z"
         style="fill:#cccccc"
         id="path2593" />
    </g>
    <g
       aria-label="Front"
       id="text22317"
       style="font-size:2.11667px;line-height:1.25;text-align:center;text-anchor:middle;fill:#333333;stroke-width:0.264583">
      <path
         d="m 64.440613,115.29275 h -0.778248 v 0.43408 h 0.668694 v 0.1819 h -0.668694 v 0.74104 h -0.204639 v -1.53892 h 0.982887 z"
         style="fill:#cccccc"
         id="path2568" />
      <path
         d="m 65.379058,115.70719 h -0.01033 q -0.04341,-0.0103 -0.08475,-0.0145 -0.04031,-0.005 -0.09612,-0.005 -0.08992,0 -0.173633,0.0403 -0.08372,0.0393 -0.16123,0.10232 v 0.81959 h -0.194304 v -1.15445 h 0.194304 v 0.17053 q 0.115755,-0.093 0.203605,-0.13126 0.08888,-0.0393 0.180868,-0.0393 0.05064,0 0.07338,0.003 0.02274,0.002 0.06821,0.009 z"
         style="fill:#cccccc"
         id="path2570" />
      <path
         d="m 66.545914,116.07306 q 0,0.28216 -0.144694,0.44545 -0.144694,0.1633 -0.387574,0.1633 -0.244947,0 -0.389641,-0.1633 -0.143661,-0.16329 -0.143661,-0.44545 0,-0.28215 0.143661,-0.44545 0.144694,-0.16433 0.389641,-0.16433 0.24288,0 0.387574,0.16433 0.144694,0.1633 0.144694,0.44545 z m -0.200505,0 q 0,-0.22427 -0.08785,-0.33279 -0.08785,-0.10956 -0.243913,-0.10956 -0.15813,0 -0.24598,0.10956 -0.08682,0.10852 -0.08682,0.33279 0,0.21704 0.08785,0.3297 0.08785,0.11162 0.244947,0.11162 0.155029,0 0.24288,-0.11059 0.08888,-0.11162 0.08888,-0.33073 z"
         style="fill:#cccccc"
         id="path2572" />
      <path
         d="m 67.811988,116.64977 h -0.194303 v -0.65732 q 0,-0.0796 -0.0093,-0.14883 -0.0093,-0.0703 -0.03411,-0.10956 -0.02584,-0.0434 -0.07441,-0.0641 -0.04858,-0.0217 -0.12609,-0.0217 -0.07958,0 -0.166399,0.0393 -0.08682,0.0393 -0.166398,0.10025 v 0.86196 h -0.194304 v -1.15445 h 0.194304 v 0.12816 q 0.09095,-0.0755 0.188102,-0.11783 0.09715,-0.0424 0.199472,-0.0424 0.187069,0 0.285254,0.11265 0.09819,0.11266 0.09819,0.32453 z"
         style="fill:#cccccc"
         id="path2574" />
      <path
         d="m 68.785574,116.63944 q -0.05478,0.0145 -0.11989,0.0238 -0.06408,0.009 -0.114721,0.009 -0.176734,0 -0.268718,-0.0951 -0.09199,-0.0951 -0.09199,-0.3049 v -0.61391 h -0.131258 v -0.1633 h 0.131258 v -0.33176 h 0.194304 v 0.33176 h 0.40101 v 0.1633 h -0.40101 v 0.52606 q 0,0.091 0.0041,0.14263 0.0041,0.0506 0.02894,0.0951 0.02274,0.0413 0.06201,0.061 0.04031,0.0186 0.121956,0.0186 0.04754,0 0.09922,-0.0134 0.05168,-0.0145 0.07442,-0.0238 h 0.01033 z"
         style="fill:#cccccc"
         id="path2576" />
    </g>
    <g
       aria-label="Rear"
       id="text22321"
       style="font-size:2.11667px;line-height:1.25;text-align:center;text-anchor:middle;fill:#333333;stroke-width:0.264583">
      <path
         d="m 85.412253,116.64977 h -0.265617 l -0.514698,-0.61185 h -0.288355 v 0.61185 h -0.204639 v -1.53892 h 0.430982 q 0.139527,0 0.232545,0.0186 0.09302,0.0176 0.167431,0.0641 0.08372,0.0527 0.130225,0.13332 0.04754,0.0796 0.04754,0.20258 0,0.16639 -0.08372,0.27905 -0.08372,0.11162 -0.230478,0.16846 z m -0.478524,-1.10587 q 0,-0.0661 -0.02377,-0.11679 -0.02274,-0.0517 -0.07648,-0.0868 -0.04444,-0.03 -0.10542,-0.0413 -0.06098,-0.0124 -0.14366,-0.0124 h -0.240813 v 0.58084 h 0.206706 q 0.09715,0 0.169499,-0.0165 0.07235,-0.0176 0.12299,-0.0641 0.04651,-0.0434 0.06821,-0.0992 0.02274,-0.0569 0.02274,-0.14366 z"
         style="fill:#cccccc"
         id="path2559" />
      <path
         d="m 86.509862,116.0927 h -0.850595 q 0,0.10645 0.03204,0.18604 0.03204,0.0785 0.08785,0.12919 0.05374,0.0496 0.127124,0.0744 0.07441,0.0248 0.163298,0.0248 0.117822,0 0.236678,-0.0465 0.11989,-0.0476 0.170533,-0.093 h 0.01034 v 0.21187 q -0.09819,0.0413 -0.200505,0.0692 -0.10232,0.0279 -0.214974,0.0279 -0.287322,0 -0.448552,-0.15503 -0.161231,-0.15606 -0.161231,-0.44235 0,-0.28318 0.153996,-0.44958 0.155029,-0.1664 0.407211,-0.1664 0.233578,0 0.359668,0.13643 0.127124,0.13642 0.127124,0.38757 z m -0.189136,-0.14883 q -10e-4,-0.15296 -0.07751,-0.23668 -0.07545,-0.0837 -0.230478,-0.0837 -0.156063,0 -0.24908,0.092 -0.09199,0.092 -0.104387,0.22841 z"
         style="fill:#cccccc"
         id="path2561" />
      <path
         d="m 87.701523,116.64977 h -0.19327 v -0.12299 q -0.02584,0.0176 -0.07028,0.0496 -0.04341,0.031 -0.08475,0.0496 -0.04858,0.0238 -0.111621,0.0393 -0.06305,0.0165 -0.147795,0.0165 -0.156063,0 -0.264584,-0.10335 -0.10852,-0.10335 -0.10852,-0.26355 0,-0.13126 0.05581,-0.21187 0.05684,-0.0816 0.161231,-0.12816 0.10542,-0.0465 0.253215,-0.0631 0.147795,-0.0165 0.317294,-0.0248 v -0.03 q 0,-0.0661 -0.02377,-0.10955 -0.02274,-0.0434 -0.06615,-0.0682 -0.04134,-0.0238 -0.09922,-0.032 -0.05788,-0.008 -0.120923,-0.008 -0.07648,0 -0.170533,0.0207 -0.09405,0.0196 -0.194304,0.0579 h -0.01034 v -0.19741 q 0.05684,-0.0155 0.164331,-0.0341 0.107488,-0.0186 0.211874,-0.0186 0.121957,0 0.211874,0.0207 0.09095,0.0196 0.157096,0.0682 0.06511,0.0475 0.09922,0.12299 0.03411,0.0755 0.03411,0.18707 z m -0.19327,-0.28422 v -0.32143 q -0.08888,0.005 -0.209807,0.0155 -0.11989,0.0103 -0.19017,0.03 -0.08372,0.0238 -0.135392,0.0744 -0.05168,0.0496 -0.05168,0.13746 0,0.0992 0.05994,0.14986 0.05994,0.0496 0.182935,0.0496 0.10232,0 0.187069,-0.0393 0.08475,-0.0403 0.157097,-0.0961 z"
         style="fill:#cccccc"
         id="path2563" />
      <path
         d="m 88.796031,115.70719 h -0.01033 q -0.04341,-0.0103 -0.08475,-0.0145 -0.04031,-0.005 -0.09612,-0.005 -0.08992,0 -0.173633,0.0403 -0.08372,0.0393 -0.161231,0.10232 v 0.81959 h -0.194303 v -1.15445 h 0.194303 v 0.17053 q 0.115756,-0.093 0.203606,-0.13126 0.08888,-0.0393 0.180868,-0.0393 0.05064,0 0.07338,0.003 0.02274,0.002 0.06821,0.009 z"
         style="fill:#cccccc"
         id="path2565" />
    </g>
    <g
       aria-label="Invert"
       id="text22325"
       style="font-size:4.23333px;line-height:1.25;text-align:center;text-anchor:middle;fill:#333333;stroke-width:0.264583"
       transform="translate(0,6.4250001)">
      <path
         d="m 40.776638,25.699999 h -1.215429 v -0.314193 h 0.403076 v -2.44946 h -0.403076 v -0.314193 h 1.215429 v 0.314193 h -0.403076 v 2.44946 h 0.403076 z"
         id="path2546" />
      <path
         d="m 43.37286,25.699999 h -0.388607 v -1.314647 q 0,-0.159164 -0.0186,-0.297656 -0.0186,-0.14056 -0.06821,-0.219108 -0.05168,-0.08682 -0.148828,-0.128158 -0.09715,-0.04341 -0.252181,-0.04341 -0.159163,0 -0.332796,0.07855 -0.173632,0.07855 -0.332796,0.200505 v 1.723924 H 41.44223 v -2.308901 h 0.388606 v 0.256315 q 0.181901,-0.150895 0.376204,-0.235645 0.194304,-0.08475 0.398942,-0.08475 0.374137,0 0.570507,0.225309 0.196371,0.225309 0.196371,0.649056 z"
         id="path2548" />
      <path
         d="m 46.076568,23.391098 -0.934309,2.308901 h -0.390673 l -0.928108,-2.308901 h 0.421679 l 0.715201,1.837612 0.709001,-1.837612 z"
         id="path2550" />
      <path
         d="m 48.480554,24.585856 h -1.701187 q 0,0.212907 0.06408,0.37207 0.06408,0.157096 0.1757,0.258382 0.107487,0.09922 0.254248,0.148828 0.148828,0.04961 0.326594,0.04961 0.235645,0 0.473356,-0.09302 0.239779,-0.09509 0.341064,-0.186035 h 0.02067 v 0.423746 q -0.19637,0.08268 -0.401009,0.138493 -0.204638,0.05581 -0.429948,0.05581 -0.574641,0 -0.897102,-0.310058 -0.32246,-0.312125 -0.32246,-0.8847 0,-0.566373 0.307991,-0.899169 0.310058,-0.332796 0.81442,-0.332796 0.467154,0 0.719335,0.272851 0.254248,0.272852 0.254248,0.775146 z M 48.102283,24.2882 q -0.0021,-0.305924 -0.155029,-0.473356 -0.150895,-0.167431 -0.460954,-0.167431 -0.312125,0 -0.49816,0.183968 -0.183968,0.183968 -0.208773,0.456819 z"
         id="path2552" />
      <path
         d="m 50.510402,23.814844 h -0.02067 q -0.08682,-0.02067 -0.169499,-0.02894 -0.08062,-0.01034 -0.192236,-0.01034 -0.179834,0 -0.347265,0.08062 -0.167432,0.07855 -0.322461,0.204639 v 1.639175 h -0.388606 v -2.308901 h 0.388606 v 0.341064 q 0.23151,-0.186035 0.40721,-0.262516 0.177767,-0.07855 0.361735,-0.07855 0.101286,0 0.146761,0.0062 0.04548,0.0041 0.136425,0.0186 z"
         id="path2554" />
      <path
         d="m 52.075163,25.679328 q -0.109554,0.02894 -0.239778,0.04754 -0.128158,0.0186 -0.229443,0.0186 -0.353467,0 -0.537435,-0.190169 -0.183968,-0.190169 -0.183968,-0.609781 v -1.227831 h -0.262516 v -0.326595 h 0.262516 v -0.663525 h 0.388607 v 0.663525 h 0.802017 v 0.326595 h -0.802017 v 1.052131 q 0,0.181901 0.0083,0.285254 0.0083,0.101285 0.05788,0.190169 0.04547,0.08268 0.124023,0.121956 0.08062,0.03721 0.243912,0.03721 0.09508,0 0.198438,-0.02687 0.103353,-0.02894 0.148828,-0.04754 h 0.02067 z"
         id="path2556" />
    </g>
    <g
       aria-label="Width"
       id="text22329"
       style="font-size:6.35px;line-height:1.25;text-align:center;text-anchor:middle;fill:#333333;stroke-width:0.264583"
       transform="translate(0,6.4250001)">
      <path
         d="m 42.464386,40.358226 -1.199927,4.616772 h -0.69143 l -0.970484,-3.832324 -0.948779,3.832324 h -0.675928 l -1.221631,-4.616772 h 0.629419 l 0.970484,3.838525 0.95498,-3.838525 h 0.623218 l 0.964282,3.875732 0.964282,-3.875732 z"
         id="path2535" />
      <path
         d="M 43.949567,40.931834 H 43.292243 V 40.32722 h 0.657324 z m -0.03721,4.043164 h -0.58291 v -3.463354 h 0.58291 z"
         id="path2537" />
      <path
         d="m 47.874908,44.974998 h -0.58291 V 44.61223 q -0.251147,0.217041 -0.523999,0.337964 -0.272852,0.120923 -0.592212,0.120923 -0.620117,0 -0.985986,-0.477491 -0.362769,-0.47749 -0.362769,-1.32395 0,-0.440283 0.124024,-0.784448 0.127124,-0.344165 0.341064,-0.586011 0.21084,-0.235644 0.489893,-0.359668 0.282153,-0.124023 0.58291,-0.124023 0.272851,0 0.483691,0.05891 0.21084,0.05581 0.443384,0.176733 v -1.500683 h 0.58291 z m -0.58291,-0.852661 v -1.987475 q -0.235645,-0.10542 -0.42168,-0.145728 -0.186035,-0.04031 -0.406176,-0.04031 -0.489893,0 -0.762745,0.341064 -0.272851,0.341065 -0.272851,0.967383 0,0.617016 0.21084,0.939477 0.21084,0.319361 0.675927,0.319361 0.248047,0 0.502295,-0.108521 0.254248,-0.111621 0.47439,-0.285254 z"
         id="path2539" />
      <path
         d="m 50.820466,44.943993 q -0.164331,0.04341 -0.359668,0.07131 -0.192237,0.0279 -0.344165,0.0279 -0.530201,0 -0.806153,-0.285254 -0.275952,-0.285253 -0.275952,-0.914672 v -1.841748 h -0.393774 v -0.489893 h 0.393774 v -0.995288 h 0.58291 v 0.995288 h 1.203028 v 0.489893 h -1.203028 v 1.578198 q 0,0.272851 0.0124,0.427881 0.0124,0.151928 0.08682,0.285254 0.06821,0.124023 0.186035,0.182934 0.120923,0.05581 0.365869,0.05581 0.142627,0 0.297657,-0.04031 0.155029,-0.04341 0.223242,-0.07131 h 0.03101 z"
         id="path2541" />
      <path
         d="m 54.420245,44.974998 h -0.58291 v -1.971972 q 0,-0.238745 -0.02791,-0.446485 -0.0279,-0.210839 -0.102319,-0.328662 -0.07751,-0.130224 -0.223242,-0.192236 -0.145728,-0.06511 -0.378272,-0.06511 -0.238745,0 -0.499194,0.117822 -0.26045,0.117822 -0.499195,0.300757 V 44.975 h -0.58291 v -4.824511 h 0.58291 v 1.74563 q 0.272852,-0.226343 0.564307,-0.353467 0.291455,-0.127124 0.598413,-0.127124 0.561206,0 0.855762,0.337964 0.294555,0.337964 0.294555,0.973584 z"
         id="path2543" />
    </g>
    <g
       aria-label="Mod"
       id="text22333"
       style="font-size:6.35px;line-height:1.25;text-align:center;text-anchor:middle;fill:#333333;stroke-width:0.264583"
       transform="translate(0,6.4250001)">
      <path
         d="M 43.870502,64.25 H 43.256586 V 60.271948 L 41.972943,62.97876 H 41.607074 L 40.332733,60.271948 V 64.25 h -0.573608 v -4.616772 h 0.837158 l 1.230933,2.570385 1.190625,-2.570385 h 0.852661 z"
         id="path2528" />
      <path
         d="m 48.015985,62.519873 q 0,0.84646 -0.434082,1.336353 -0.434082,0.489892 -1.16272,0.489892 -0.734839,0 -1.168921,-0.489892 -0.430981,-0.489893 -0.430981,-1.336353 0,-0.84646 0.430981,-1.336352 0.434082,-0.492994 1.168921,-0.492994 0.728638,0 1.16272,0.492994 0.434082,0.489892 0.434082,1.336352 z m -0.601514,0 q 0,-0.672827 -0.26355,-0.998389 -0.263549,-0.328662 -0.731738,-0.328662 -0.474389,0 -0.737939,0.328662 -0.260449,0.325562 -0.260449,0.998389 0,0.651123 0.263549,0.989087 0.26355,0.334863 0.734839,0.334863 0.465088,0 0.728638,-0.331762 0.26665,-0.334864 0.26665,-0.992188 z"
         id="path2530" />
      <path
         d="m 51.727386,64.25 h -0.58291 v -0.362769 q -0.251148,0.217041 -0.523999,0.337964 -0.272852,0.120923 -0.592212,0.120923 -0.620117,0 -0.985987,-0.47749 -0.362768,-0.47749 -0.362768,-1.32395 0,-0.440283 0.124023,-0.784448 0.127124,-0.344166 0.341065,-0.586011 0.21084,-0.235645 0.489892,-0.359668 0.282154,-0.124024 0.58291,-0.124024 0.272852,0 0.483692,0.05891 0.21084,0.05581 0.443384,0.176733 v -1.500684 h 0.58291 z m -0.58291,-0.852661 v -1.987476 q -0.235645,-0.10542 -0.42168,-0.145727 -0.186035,-0.04031 -0.406177,-0.04031 -0.489892,0 -0.762744,0.341065 -0.272852,0.341064 -0.272852,0.967382 0,0.617017 0.21084,0.939478 0.21084,0.31936 0.675928,0.31936 0.248047,0 0.502295,-0.10852 0.254248,-0.111621 0.47439,-0.285254 z"
         id="path2532" />
    </g>
    <g
       aria-label="Pitch"
       id="text22337"
       style="font-size:6.35px;line-height:1.25;text-align:center;text-anchor:middle;fill:#333333;stroke-width:0.264583"
       transform="translate(0,6.4250001)">
      <path
         d="m 41.659784,80.303493 q 0,0.306958 -0.108521,0.570508 -0.105419,0.260449 -0.297656,0.452685 -0.238745,0.238745 -0.564306,0.359668 -0.325562,0.117822 -0.821656,0.117822 h -0.613916 v 1.720826 h -0.613916 v -4.616773 h 1.252637 q 0.415479,0 0.703833,0.07131 0.288355,0.06821 0.511597,0.217041 0.26355,0.176733 0.406176,0.440283 0.145728,0.26355 0.145728,0.666626 z m -0.638721,0.0155 q 0,-0.238745 -0.08372,-0.415479 -0.08372,-0.176733 -0.254248,-0.288354 -0.148828,-0.09612 -0.341064,-0.136426 -0.189136,-0.04341 -0.480591,-0.04341 h -0.607715 v 1.844848 h 0.517798 q 0.37207,0 0.604614,-0.06511 0.232544,-0.06821 0.378272,-0.21394 0.145727,-0.148829 0.204639,-0.31316 0.06201,-0.164331 0.06201,-0.368969 z"
         id="path2517" />
      <path
         d="m 43.048847,79.481838 h -0.657325 v -0.604615 h 0.657325 z m -0.03721,4.043164 h -0.582911 v -3.463355 h 0.582911 z"
         id="path2519" />
      <path
         d="m 45.963397,83.493996 q -0.164331,0.04341 -0.359668,0.07131 -0.192236,0.02791 -0.344165,0.02791 -0.5302,0 -0.806152,-0.285253 Q 44.17746,83.022707 44.17746,82.393288 V 80.55154 h -0.393774 v -0.489893 h 0.393774 v -0.995288 h 0.58291 v 0.995288 h 1.203027 V 80.55154 H 44.76037 v 1.578198 q 0,0.272851 0.0124,0.427881 0.0124,0.151928 0.08682,0.285254 0.06821,0.124023 0.186035,0.182934 0.120923,0.05581 0.365869,0.05581 0.142627,0 0.297656,-0.04031 0.15503,-0.04341 0.223243,-0.07131 h 0.03101 z"
         id="path2521" />
      <path
         d="m 49.228314,83.307961 q -0.291455,0.139526 -0.555004,0.217041 -0.26045,0.07751 -0.555005,0.07751 -0.375171,0 -0.68833,-0.10852 -0.31316,-0.111621 -0.536402,-0.334864 -0.226342,-0.223242 -0.350366,-0.564306 -0.124023,-0.341065 -0.124023,-0.796851 0,-0.84956 0.465088,-1.333252 0.468188,-0.483691 1.234033,-0.483691 0.297656,0 0.58291,0.08372 0.288354,0.08372 0.527099,0.204638 v 0.648023 h -0.03101 q -0.266646,-0.207739 -0.5519,-0.319361 -0.282153,-0.111621 -0.551904,-0.111621 -0.496094,0 -0.784448,0.334864 -0.285254,0.331762 -0.285254,0.976684 0,0.626319 0.279053,0.964282 0.282153,0.334864 0.790649,0.334864 0.176733,0 0.359668,-0.04651 0.182935,-0.04651 0.328662,-0.120923 0.127124,-0.06511 0.238745,-0.136426 0.111621,-0.07441 0.176734,-0.127124 h 0.03101 z"
         id="path2523" />
      <path
         d="m 52.871503,83.525002 h -0.582911 v -1.971973 q 0,-0.238745 -0.02791,-0.446484 -0.0279,-0.21084 -0.102319,-0.328663 -0.07752,-0.130224 -0.223242,-0.192236 -0.145728,-0.06511 -0.378272,-0.06511 -0.238745,0 -0.499194,0.117822 -0.260449,0.117822 -0.499195,0.300757 v 2.585889 H 49.97555 V 78.70049 h 0.58291 v 1.74563 q 0.272852,-0.226343 0.564307,-0.353467 0.291455,-0.127124 0.598413,-0.127124 0.561206,0 0.855762,0.337964 0.294556,0.337964 0.294556,0.973584 z"
         id="path2525" />
    </g>
    <g
       aria-label="Fine"
       id="text22341"
       style="font-size:6.35px;line-height:1.25;text-align:center;text-anchor:middle;fill:#333333;stroke-width:0.264583"
       transform="translate(0,6.4250001)">
      <path
         d="m 73.172282,79.453932 h -2.334741 v 1.302246 h 2.006079 v 0.545703 h -2.006079 v 2.223121 h -0.613916 v -4.616773 h 2.948657 z"
         id="path2508" />
      <path
         d="M 74.452824,79.481838 H 73.7955 v -0.604615 h 0.657324 z m -0.03721,4.043164 h -0.58291 v -3.463355 h 0.58291 z"
         id="path2510" />
      <path
         d="m 78.464982,83.525002 h -0.58291 v -1.971973 q 0,-0.238745 -0.0279,-0.446484 -0.02791,-0.21084 -0.102319,-0.328663 -0.07751,-0.130224 -0.223243,-0.192236 -0.145727,-0.06511 -0.378271,-0.06511 -0.238745,0 -0.499194,0.117822 -0.26045,0.117822 -0.499195,0.300757 v 2.585889 h -0.58291 v -3.463355 h 0.58291 v 0.384473 q 0.272852,-0.226343 0.564307,-0.353467 0.291455,-0.127124 0.598413,-0.127124 0.561206,0 0.855762,0.337964 0.294555,0.337964 0.294555,0.973584 z"
         id="path2512" />
      <path
         d="M 82.486443,81.853786 H 79.93466 q 0,0.31936 0.09612,0.558105 0.09612,0.235645 0.263549,0.387573 0.161231,0.148829 0.381372,0.223243 0.223243,0.07441 0.489893,0.07441 0.353467,0 0.710034,-0.139527 0.359668,-0.142627 0.511597,-0.279052 h 0.03101 v 0.63562 q -0.294556,0.124023 -0.601514,0.207739 -0.306958,0.08372 -0.644922,0.08372 -0.861963,0 -1.345654,-0.465088 -0.483691,-0.468189 -0.483691,-1.327051 0,-0.84956 0.461987,-1.348755 0.465088,-0.499194 1.221631,-0.499194 0.700732,0 1.079004,0.409277 0.381372,0.409278 0.381372,1.16272 z m -0.567408,-0.446485 q -0.0031,-0.458886 -0.232544,-0.710034 -0.226342,-0.251147 -0.69143,-0.251147 -0.468189,0 -0.747241,0.275952 -0.275953,0.275952 -0.31316,0.685229 z"
         id="path2514" />
    </g>
    <g
       aria-label="Mod"
       id="text22345"
       style="font-size:6.35px;line-height:1.25;text-align:center;text-anchor:middle;fill:#333333;stroke-width:0.264583"
       transform="translate(0,6.4250001)">
      <path
         d="m 74.350505,64.25 h -0.613916 v -3.978052 l -1.283642,2.706812 h -0.36587 l -1.27434,-2.706812 V 64.25 h -0.573609 v -4.616772 h 0.837158 l 1.230933,2.570385 1.190625,-2.570385 h 0.852661 z"
         id="path2501" />
      <path
         d="m 78.495988,62.519873 q 0,0.84646 -0.434082,1.336353 -0.434082,0.489892 -1.162719,0.489892 -0.734839,0 -1.168921,-0.489892 -0.430982,-0.489893 -0.430982,-1.336353 0,-0.84646 0.430982,-1.336352 0.434082,-0.492994 1.168921,-0.492994 0.728637,0 1.162719,0.492994 0.434082,0.489892 0.434082,1.336352 z m -0.601513,0 q 0,-0.672827 -0.26355,-0.998389 -0.26355,-0.328662 -0.731738,-0.328662 -0.47439,0 -0.73794,0.328662 -0.260449,0.325562 -0.260449,0.998389 0,0.651123 0.26355,0.989087 0.26355,0.334863 0.734839,0.334863 0.465087,0 0.728637,-0.331762 0.266651,-0.334864 0.266651,-0.992188 z"
         id="path2503" />
      <path
         d="m 82.207389,64.25 h -0.58291 v -0.362769 q -0.251147,0.217041 -0.523999,0.337964 -0.272852,0.120923 -0.592212,0.120923 -0.620117,0 -0.985986,-0.47749 -0.362769,-0.47749 -0.362769,-1.32395 0,-0.440283 0.124024,-0.784448 0.127124,-0.344166 0.341064,-0.586011 0.21084,-0.235645 0.489893,-0.359668 0.282153,-0.124024 0.58291,-0.124024 0.272851,0 0.483691,0.05891 0.21084,0.05581 0.443384,0.176733 v -1.500684 h 0.58291 z m -0.58291,-0.852661 v -1.987476 q -0.235645,-0.10542 -0.42168,-0.145727 -0.186035,-0.04031 -0.406176,-0.04031 -0.489893,0 -0.762745,0.341065 -0.272851,0.341064 -0.272851,0.967382 0,0.617017 0.21084,0.939478 0.21084,0.31936 0.675927,0.31936 0.248047,0 0.502295,-0.10852 0.254248,-0.111621 0.47439,-0.285254 z"
         id="path2505" />
    </g>
    <g
       aria-label="Rear"
       id="text22349"
       style="font-size:6.35px;line-height:1.25;text-align:center;text-anchor:middle;fill:#333333;stroke-width:0.264583"
       transform="translate(0,6.4250001)">
      <path
         d="m 73.356767,44.974998 h -0.79685 l -1.544092,-1.835546 h -0.865063 v 1.835546 h -0.613917 v -4.616772 h 1.292945 q 0.418579,0 0.697632,0.05581 0.279052,0.05271 0.502295,0.192236 0.251147,0.15813 0.390673,0.399976 0.142627,0.238745 0.142627,0.607714 0,0.499195 -0.251147,0.837159 -0.251148,0.334863 -0.691431,0.505395 z m -1.435571,-3.317626 q 0,-0.198438 -0.07131,-0.350367 -0.06821,-0.155029 -0.229444,-0.260449 -0.133325,-0.08992 -0.31626,-0.124023 -0.182934,-0.03721 -0.430981,-0.03721 h -0.722436 v 1.742529 h 0.620117 q 0.291455,0 0.508496,-0.04961 0.217041,-0.05271 0.368969,-0.192237 0.139527,-0.130224 0.204639,-0.297656 0.06821,-0.170532 0.06821,-0.430981 z"
         id="path2492" />
      <path
         d="m 76.649589,43.303783 h -2.551782 q 0,0.31936 0.09612,0.558105 0.09612,0.235645 0.26355,0.387573 0.161231,0.148828 0.381372,0.223243 0.223242,0.07441 0.489893,0.07441 0.353467,0 0.710034,-0.139527 0.359668,-0.142627 0.511597,-0.279052 h 0.03101 v 0.63562 q -0.294555,0.124023 -0.601513,0.207739 -0.306958,0.08372 -0.644922,0.08372 -0.861963,0 -1.345654,-0.465088 -0.483692,-0.468189 -0.483692,-1.327051 0,-0.84956 0.461988,-1.348755 0.465087,-0.499194 1.22163,-0.499194 0.700733,0 1.079004,0.409277 0.381372,0.409278 0.381372,1.16272 z m -0.567407,-0.446485 q -0.0031,-0.458886 -0.232544,-0.710034 -0.226343,-0.251147 -0.691431,-0.251147 -0.468188,0 -0.747241,0.275952 -0.275952,0.275952 -0.313159,0.685229 z"
         id="path2494" />
      <path
         d="m 80.224564,44.974998 h -0.579809 v -0.368969 q -0.07752,0.05271 -0.21084,0.148828 -0.130225,0.09302 -0.254248,0.148828 -0.145728,0.07131 -0.334863,0.117822 -0.189136,0.04961 -0.443384,0.04961 -0.468189,0 -0.79375,-0.310059 -0.325562,-0.310059 -0.325562,-0.790649 0,-0.393775 0.167432,-0.63562 0.170532,-0.244947 0.483691,-0.384473 0.31626,-0.139526 0.759644,-0.189136 0.443384,-0.04961 0.95188,-0.07441 v -0.08992 q 0,-0.198437 -0.07131,-0.328662 -0.06821,-0.130225 -0.198437,-0.204639 -0.124024,-0.07131 -0.297656,-0.09612 -0.173633,-0.02481 -0.362769,-0.02481 -0.229443,0 -0.511597,0.06201 -0.282153,0.05891 -0.58291,0.173633 h -0.03101 V 41.58605 q 0.170533,-0.04651 0.492994,-0.102319 0.322461,-0.05581 0.63562,-0.05581 0.365869,0 0.63562,0.06201 0.272851,0.05891 0.471289,0.204639 0.195337,0.142627 0.297656,0.368969 0.102319,0.226343 0.102319,0.561206 z m -0.579809,-0.852661 v -0.964282 q -0.266651,0.0155 -0.629419,0.04651 -0.359668,0.03101 -0.570508,0.08992 -0.251147,0.07131 -0.406177,0.223242 -0.155029,0.148828 -0.155029,0.412378 0,0.297656 0.179834,0.449585 0.179834,0.148828 0.548804,0.148828 0.306958,0 0.561206,-0.117822 0.254248,-0.120923 0.471289,-0.288355 z"
         id="path2496" />
      <path
         d="m 83.508085,42.147264 h -0.03101 q -0.130225,-0.03101 -0.254248,-0.04341 -0.120923,-0.0155 -0.288354,-0.0155 -0.269751,0 -0.520899,0.120923 -0.251147,0.117822 -0.483691,0.306958 v 2.458764 h -0.58291 v -3.463354 h 0.58291 v 0.511597 q 0.347265,-0.279053 0.610815,-0.393775 0.266651,-0.117822 0.542603,-0.117822 0.151928,0 0.220141,0.0093 0.06821,0.0062 0.204639,0.0279 z"
         id="path2498" />
    </g>
    <g
       aria-label="Noise"
       id="text22353"
       style="font-size:4.23333px;line-height:1.25;text-align:center;text-anchor:middle;fill:#333333;stroke-width:0.264583"
       transform="translate(0,6.4250001)">
      <path
         d="M 68.069029,25.699999 H 67.5626 l -1.459341,-2.753318 v 2.753318 h -0.382405 v -3.077846 h 0.634586 l 1.331183,2.51354 v -2.51354 h 0.382406 z"
         id="path2481" />
      <path
         d="m 70.824414,24.546582 q 0,0.564306 -0.289388,0.890901 -0.289388,0.326595 -0.775146,0.326595 -0.489892,0 -0.77928,-0.326595 -0.28732,-0.326595 -0.28732,-0.890901 0,-0.564306 0.28732,-0.890901 0.289388,-0.328662 0.77928,-0.328662 0.485758,0 0.775146,0.328662 0.289388,0.326595 0.289388,0.890901 z m -0.401009,0 q 0,-0.448551 -0.1757,-0.665592 -0.175699,-0.219108 -0.487825,-0.219108 -0.316259,0 -0.491959,0.219108 -0.173633,0.217041 -0.173633,0.665592 0,0.434082 0.1757,0.659391 0.1757,0.223242 0.489892,0.223242 0.310059,0 0.485758,-0.221175 0.177767,-0.223242 0.177767,-0.661458 z"
         id="path2483" />
      <path
         d="m 71.843472,23.004558 h -0.438216 v -0.403075 h 0.438216 z m -0.0248,2.695441 h -0.388607 v -2.308901 h 0.388607 z"
         id="path2485" />
      <path
         d="m 74.237122,25.034407 q 0,0.316259 -0.262516,0.518831 -0.260449,0.202571 -0.713134,0.202571 -0.256315,0 -0.471289,-0.05994 -0.212906,-0.06201 -0.3576,-0.134359 v -0.436149 h 0.02067 q 0.183968,0.138493 0.409277,0.221175 0.225309,0.08062 0.432015,0.08062 0.256315,0 0.401009,-0.08268 0.144694,-0.08268 0.144694,-0.260449 0,-0.136425 -0.07855,-0.206705 -0.07855,-0.07028 -0.301791,-0.119889 -0.08268,-0.0186 -0.21704,-0.04341 -0.132292,-0.0248 -0.241846,-0.05374 -0.303857,-0.08062 -0.432014,-0.235644 -0.126091,-0.157097 -0.126091,-0.384473 0,-0.142627 0.05788,-0.268717 0.05994,-0.12609 0.179834,-0.225309 0.115755,-0.09715 0.293521,-0.152962 0.179834,-0.05788 0.401009,-0.05788 0.206706,0 0.417545,0.05168 0.212907,0.04961 0.353467,0.121956 v 0.415478 h -0.02067 q -0.148828,-0.109554 -0.361734,-0.183968 -0.212907,-0.07648 -0.417546,-0.07648 -0.212906,0 -0.359667,0.08268 -0.146761,0.08062 -0.146761,0.241846 0,0.142627 0.08888,0.214974 0.08682,0.07235 0.28112,0.117822 0.107487,0.0248 0.239778,0.04961 0.134359,0.0248 0.223242,0.04547 0.270784,0.06201 0.417545,0.212907 0.146761,0.152962 0.146761,0.405143 z"
         id="path2487" />
      <path
         d="m 76.725857,24.585856 h -1.701186 q 0,0.212907 0.06408,0.37207 0.06408,0.157096 0.1757,0.258382 0.107487,0.09922 0.254248,0.148828 0.148828,0.04961 0.326595,0.04961 0.235644,0 0.473355,-0.09302 0.239779,-0.09509 0.341064,-0.186035 h 0.02067 v 0.423746 q -0.19637,0.08268 -0.401009,0.138493 -0.204638,0.05581 -0.429947,0.05581 -0.574642,0 -0.897102,-0.310058 -0.322461,-0.312125 -0.322461,-0.8847 0,-0.566373 0.307991,-0.899169 0.310059,-0.332796 0.81442,-0.332796 0.467155,0 0.719335,0.272851 0.254248,0.272852 0.254248,0.775146 z M 76.347586,24.2882 q -0.0021,-0.305924 -0.155029,-0.473356 -0.150895,-0.167431 -0.460953,-0.167431 -0.312126,0 -0.498161,0.183968 -0.183968,0.183968 -0.208772,0.456819 z"
         id="path2489" />
    </g>
    <g
       aria-label="Mix"
       id="text32683"
       style="font-size:4.23333px;line-height:1.25;text-align:center;text-anchor:middle;fill:#333333;stroke-width:0.264583"
       transform="translate(0,6.4250001)">
      <path
         d="m 80.816978,25.699999 h -0.409277 v -2.652032 l -0.855761,1.804539 h -0.243912 l -0.84956,-1.804539 v 2.652032 h -0.382405 v -3.077846 h 0.558105 l 0.820621,1.713589 0.793749,-1.713589 h 0.56844 z"
         id="path2474" />
      <path
         d="m 82.03034,23.004558 h -0.438216 v -0.403075 h 0.438216 z m -0.02481,2.695441 h -0.388606 v -2.308901 h 0.388606 z"
         id="path2476" />
      <path
         d="M 84.773323,25.699999 H 84.28343 l -0.655256,-0.886767 -0.659391,0.886767 h -0.452685 l 0.901236,-1.15135 -0.892968,-1.157551 h 0.489892 l 0.651123,0.872297 0.653189,-0.872297 h 0.454753 l -0.907438,1.13688 z"
         id="path2478" />
    </g>
    <g
       id="text45309"
       style="font-size:8.46667px;line-height:1.25;stroke-width:0.264583" />
    <path
       style="fill:#000000;stroke-width:0.264583"
       id="rect1202"
       width="40.639999"
       height="19.275"
       x="25.400002"
       y="6.4249997"
       inkscape:path-effect="#path-effect17170"
       d="m 27.516668,6.4249997 36.406666,0 a 2.1166667,2.1166667 45 0 1 2.116667,2.1166667 V 23.583333 a 2.1166667,2.1166667 135 0 1 -2.116667,2.116666 l -36.406666,0 a 2.1166667,2.1166667 45 0 1 -2.116666,-2.116666 l 0,-15.0416666 a 2.1166667,2.1166667 135 0 1 2.116666,-2.1166667 z"
       sodipodi:type="rect" />
    <g
       aria-label=""
       id="text2976"
       style="font-size:11.2889px;line-height:1.25;text-align:center;text-anchor:middle;stroke-width:0.264583"
       transform="translate(0,0.499703)">
      <path
         d="m 34.872074,13.057285 q -0.749654,4.409727 -1.807988,5.468061 -0.573265,0.573265 -1.190627,0.573265 -0.705556,0 -1.102431,-0.396876 -1.058335,-1.058334 -1.058335,-2.645836 0,-1.94028 1.367016,-3.307295 1.499307,-1.499307 3.660073,-1.499307 1.940279,0 3.042711,1.102432 1.234724,1.234723 1.234724,2.910419 0,1.807988 -1.146529,2.954517 -0.749654,0.749654 -2.293058,1.45521 l -0.926043,-0.926043 q 1.543405,-0.48507 2.42535,-1.367015 0.837848,-0.837848 0.837848,-2.028474 0,-1.411113 -0.926043,-2.337155 Q 36.0627,12.087145 34.078323,12.17534 l 0.793751,0.396875 q 0.529167,0.220486 0,0.48507 z m -1.014238,-0.837848 q -1.146529,0.264583 -1.984377,1.102432 -1.146529,1.146529 -1.146529,2.822225 0,1.014237 0.661459,1.675696 0.132292,0.132292 0.396876,0.132292 0.264583,0 0.573264,-0.308681 1.014237,-1.014237 1.499307,-5.423964 z"
         style="fill:#27d721"
         id="path10077" />
      <path
         d="m 49.821047,17.952082 q -2.469447,-1.807988 -4.542018,-3.660074 -0.264584,-0.220486 -0.529168,-0.220486 -0.264583,0 -0.440972,0.176389 -2.028475,1.807988 -2.778128,2.42535 l -0.881945,-0.881945 q 1.190626,-0.705557 3.130905,-2.513545 0.440973,-0.396875 0.881946,-0.396875 0.573264,0 1.058334,0.396875 3.351393,2.778128 5.115283,3.660073 z"
         style="fill:#27d721"
         id="path10079" />
      <path
         d="m 57.449874,13.057285 q -0.749653,4.409727 -1.807988,5.468061 -0.573264,0.573265 -1.190626,0.573265 -0.705556,0 -1.102432,-0.396876 -1.058334,-1.058334 -1.058334,-2.645836 0,-1.94028 1.367015,-3.307295 1.499307,-1.499307 3.660073,-1.499307 1.94028,0 3.042712,1.102432 1.234723,1.234723 1.234723,2.910419 0,1.807988 -1.146529,2.954517 -0.749653,0.749654 -2.293057,1.45521 l -0.926043,-0.926043 q 1.543404,-0.48507 2.42535,-1.367015 0.837848,-0.837848 0.837848,-2.028474 0,-1.411113 -0.926043,-2.337155 -0.926043,-0.926043 -2.91042,-0.837848 l 0.793751,0.396875 q 0.529167,0.220486 0,0.48507 z m -1.014237,-0.837848 q -1.146529,0.264583 -1.984377,1.102432 -1.146529,1.146529 -1.146529,2.822225 0,1.014237 0.661459,1.675696 0.132292,0.132292 0.396876,0.132292 0.264583,0 0.573264,-0.308681 1.014237,-1.014237 1.499307,-5.423964 z"
         style="fill:#27d721"
         id="path10081" />
    </g>
    <g
       aria-label=" "
       id="text12758"
       style="font-size:7.05556px;line-height:1.25;text-align:center;text-anchor:middle;stroke-width:0.264583">
      <path
         d="M 21.995332,5.1250763 20.875675,1.4663825 h 0.640788 l 0.582222,2.1118449 0.217041,0.7854823 q 0.01378,-0.058567 0.18948,-0.7544764 l 0.582222,-2.1428508 h 0.637343 l 0.547771,2.1221802 0.18259,0.6993549 0.210151,-0.7062451 0.627008,-2.11529 h 0.602892 L 24.75141,5.1250763 H 24.107177 L 23.524955,2.9339941 23.383706,2.3104315 22.64301,5.1250763 Z"
         style="fill:#333333"
         id="path17126" />
      <path
         d="M 29.364396,5.1250763 H 28.713273 L 28.310196,4.0157548 h -1.219564 l -0.403077,1.1093215 h -0.651123 l 1.4056,-3.6586938 h 0.516764 z M 28.127606,3.4989902 27.696969,2.2277491 27.266332,3.4989902 Z"
         style="fill:#333333"
         id="path17128" />
      <path
         d="m 32.909402,2.575704 q 0,0.6028921 -0.5271,0.8922803 -0.416857,0.2273764 -1.071425,0.2273764 H 30.525394 V 5.1250763 H 29.905277 V 1.4663825 h 1.550294 q 0.616672,0 0.995633,0.2411569 0.458198,0.2893882 0.458198,0.8681646 z m -0.640788,-0.00345 q 0,-0.5960019 -1.092096,-0.5960019 H 30.525394 V 3.1820412 H 31.2592 q 1.009414,0 1.009414,-0.6097823 z"
         style="fill:#333333"
         id="path17130" />
      <path
         d="m 33.36071,3.2957294 q 0,-1.0163038 0.564996,-1.5055077 0.471978,-0.4065215 1.150663,-0.4065215 0.754476,0 1.233345,0.4960941 0.478868,0.4926489 0.478868,1.3642586 0,0.7062451 -0.213596,1.1127666 -0.210151,0.4030764 -0.616672,0.6270078 -0.403077,0.2239313 -0.881945,0.2239313 -0.768257,0 -1.243681,-0.4926489 Q 33.36071,4.2224607 33.36071,3.2957294 Z m 0.637343,0 q 0,0.7027999 0.306614,1.0541999 0.306613,0.3479549 0.771702,0.3479549 0.461643,0 0.768256,-0.3514 0.306614,-0.3514 0.306614,-1.0714254 0,-0.6786842 -0.310059,-1.0266391 -0.306613,-0.3514 -0.764811,-0.3514 -0.465089,0 -0.771702,0.3479549 -0.306614,0.3479549 -0.306614,1.0507548 z"
         style="fill:#333333"
         id="path17132" />
      <path
         d="M 40.764224,5.1250763 H 39.995967 L 39.455087,4.3258136 Q 39.141583,3.8607254 38.986554,3.7814882 38.831524,3.6988058 38.500795,3.6988058 h -0.35829 V 5.1250763 H 37.525832 V 1.4663825 h 1.694988 q 0.564996,0 0.912951,0.244602 0.396186,0.282498 0.396186,0.8233783 0,0.4650882 -0.296278,0.7579215 -0.275608,0.2721627 -0.747586,0.3376196 0.303168,0.058567 0.609782,0.5098744 z M 39.899505,2.5550334 q 0,-0.5753313 -0.875055,-0.5753313 h -0.881945 v 1.2092293 h 0.685574 q 0.478869,0 0.70969,-0.093018 0.361736,-0.141249 0.361736,-0.54088 z"
         style="fill:#333333"
         id="path17134" />
      <path
         d="M 42.01135,5.1250763 40.891693,1.4663825 h 0.640788 l 0.582222,2.1118449 0.217041,0.7854823 q 0.01378,-0.058567 0.18948,-0.7544764 l 0.582222,-2.1428508 h 0.637343 l 0.547771,2.1221802 0.18259,0.6993549 0.210151,-0.7062451 0.627007,-2.11529 h 0.602893 L 44.767428,5.1250763 H 44.123195 L 43.540973,2.9339941 43.399724,2.3104315 42.659028,5.1250763 Z"
         style="fill:#333333"
         id="path17136" />
      <path
         d="M 49.380415,5.1250763 H 48.729292 L 48.326215,4.0157548 h -1.219564 l -0.403077,1.1093215 h -0.651123 l 1.4056,-3.6586938 h 0.516764 z M 48.143625,3.4989902 47.712988,2.2277491 47.282351,3.4989902 Z"
         style="fill:#333333"
         id="path17138" />
      <path
         d="M 53.180358,5.1250763 H 52.412101 L 51.871221,4.3258136 Q 51.557717,3.8607254 51.402688,3.7814882 51.247658,3.6988058 50.916929,3.6988058 h -0.35829 V 5.1250763 H 49.941966 V 1.4663825 h 1.694988 q 0.564996,0 0.912951,0.244602 0.396186,0.282498 0.396186,0.8233783 0,0.4650882 -0.296278,0.7579215 -0.275608,0.2721627 -0.747586,0.3376196 0.303168,0.058567 0.609782,0.5098744 z m -0.86472,-2.5700429 q 0,-0.5753313 -0.875054,-0.5753313 h -0.881945 v 1.2092293 h 0.685574 q 0.478869,0 0.70969,-0.093018 0.361735,-0.141249 0.361735,-0.54088 z"
         style="fill:#333333"
         id="path17140" />
      <path
         d="M 56.480762,5.1250763 H 53.752245 V 1.4663825 h 2.64239 v 0.5339902 h -2.022273 v 0.9749626 h 1.887914 v 0.5305451 h -1.887914 v 1.0852057 h 2.1084 z"
         style="fill:#333333"
         id="path17142" />
      <path
         d="M 59.843175,5.1250763 58.723518,1.4663825 h 0.640789 l 0.582221,2.1118449 0.217041,0.7854823 Q 60.17735,4.305143 60.35305,3.6092333 l 0.582221,-2.1428508 h 0.637343 l 0.547771,2.1221802 0.18259,0.6993549 0.210151,-0.7062451 0.627008,-2.11529 h 0.602892 L 62.599253,5.1250763 H 61.95502 L 61.372799,2.9339941 61.23155,2.3104315 60.490854,5.1250763 Z"
         style="fill:#333333"
         id="path17144" />
      <path
         d="m 63.929064,1.4663825 h 2.973119 V 1.9797021 H 65.72396 V 5.1250763 H 65.107288 V 1.9797021 h -1.178224 z"
         style="fill:#333333"
         id="path17146" />
      <path
         d="M 70.347278,1.7592158 H 68.194092 V 2.8375314 H 70.05789 V 3.388747 H 68.194092 V 5.1250763 H 67.553304 V 1.2080002 h 2.793974 z"
         style="fill:#333333"
         id="path17148" />
    </g>
  </g>
  <g
     inkscape:groupmode="layer"
     id="layer2"
     inkscape:label="components"
     style="display:none">
    <circle
       style="fill:#ff0000;stroke-width:0.328244"
       id="path1370"
       cx="45.720001"
       cy="57.825001"
       inkscape:label="width"
       r="4" />
    <circle
       style="fill:#ff0000;stroke-width:0.328244"
       id="circle2536"
       cx="15.240001"
       cy="57.825001"
       inkscape:label="front"
       r="4" />
    <circle
       style="fill:#ff0000;stroke-width:0.328244"
       id="circle2538"
       cx="76.200005"
       cy="57.825001"
       inkscape:label="rear"
       r="4" />
    <circle
       style="fill:#ff0000;stroke-width:0.328244"
       id="circle2540"
       cx="76.200005"
       cy="77.100006"
       inkscape:label="rearmod"
       r="4" />
    <circle
       style="fill:#ff0000;stroke-width:0.328244"
       id="circle2542"
       cx="45.720005"
       cy="77.100006"
       inkscape:label="widthmod"
       r="4" />
    <circle
       style="fill:#ff0000;stroke-width:0.328244"
       id="circle2544"
       cx="15.240005"
       cy="77.100006"
       inkscape:label="frontmod"
       r="4" />
    <circle
       style="fill:#ff0000;stroke-width:0.328244"
       id="circle2546"
       cx="15.240005"
       cy="96.375008"
       inkscape:label="fm"
       r="4" />
    <circle
       style="fill:#ff0000;stroke-width:0.328244"
       id="circle2548"
       cx="45.720005"
       cy="96.375008"
       inkscape:label="pitch"
       r="4" />
    <circle
       style="fill:#ff0000;stroke-width:0.328244"
       id="circle2550"
       cx="76.200005"
       cy="96.375008"
       inkscape:label="fine"
       r="4" />
    <circle
       style="fill:#00ff00;stroke-width:0.328244"
       id="circle2552"
       cx="10.160004"
       cy="122.075"
       inkscape:label="front"
       r="4" />
    <circle
       style="fill:#00ff00;stroke-width:0.328244"
       id="circle2554"
       cx="20.320004"
       cy="122.075"
       inkscape:label="width"
       r="4" />
    <circle
       style="fill:#00ff00;stroke-width:0.328244"
       id="circle2556"
       cx="30.480003"
       cy="122.075"
       inkscape:label="rear"
       r="4" />
    <circle
       style="fill:#00ff00;stroke-width:0.328244"
       id="circle2558"
       cx="40.640003"
       cy="122.075"
       inkscape:label="fm"
       r="4" />
    <circle
       style="fill:#00ff00;stroke-width:0.328244"
       id="circle2560"
       cx="50.800003"
       cy="122.075"
       inkscape:label="oct"
       r="4" />
    <circle
       style="fill:#0000ff;stroke-width:0.328244"
       id="circle2562"
       cx="86.360001"
       cy="122.075"
       inkscape:label="rear"
       r="4" />
    <circle
       style="fill:#0000ff;stroke-width:0.328244"
       id="circle2589"
       cx="76.199997"
       cy="122.075"
       inkscape:label="out"
       r="4" />
    <circle
       style="fill:#0000ff;stroke-width:0.328244"
       id="circle2591"
       cx="66.039993"
       cy="122.075"
       inkscape:label="front"
       r="4" />
    <circle
       style="fill:#0000ff;stroke-width:0.328244"
       id="circle2675"
       cx="76.199997"
       cy="109.22501"
       inkscape:label="noise"
       r="4" />
    <circle
       style="fill:#ff0000;stroke-width:0.328244"
       id="circle3888"
       cx="71.119995"
       cy="38.549995"
       inkscape:label="noise"
       r="4" />
    <circle
       style="fill:#ff0000;stroke-width:0.328244"
       id="circle3890"
       cx="45.719997"
       cy="38.549995"
       inkscape:label="invert"
       r="4" />
    <circle
       style="fill:#ff0000;stroke-width:0.328244"
       id="circle3892"
       cx="15.239996"
       cy="38.549995"
       inkscape:label="dual"
       r="4" />
    <circle
       style="fill:#ff0000;stroke-width:0.328244"
       id="circle32679"
       cx="81.279991"
       cy="38.549995"
       inkscape:label="noisemix"
       r="4" />
  </g>
</svg>
