<?xml version="1.0" encoding="UTF-8" standalone="no"?>
<!-- Created with Inkscape (http://www.inkscape.org/) -->

<svg
   width="10.0004mm"
   height="10.000431mm"
   viewBox="0 0 10.000399 10.000431"
   version="1.1"
   id="svg111794"
   inkscape:version="1.1 (c68e22c387, 2021-05-23)"
   sodipodi:docname="WaporwareBlueKnob.svg"
   xmlns:inkscape="http://www.inkscape.org/namespaces/inkscape"
   xmlns:sodipodi="http://sodipodi.sourceforge.net/DTD/sodipodi-0.dtd"
   xmlns="http://www.w3.org/2000/svg"
   xmlns:svg="http://www.w3.org/2000/svg"
   xmlns:rdf="http://www.w3.org/1999/02/22-rdf-syntax-ns#"
   xmlns:cc="http://creativecommons.org/ns#"
   xmlns:dc="http://purl.org/dc/elements/1.1/">
  <defs
     id="defs111788" />
  <sodipodi:namedview
     id="base"
     pagecolor="#ffffff"
     bordercolor="#666666"
     borderopacity="1.0"
     inkscape:pageopacity="0.0"
     inkscape:pageshadow="2"
     inkscape:zoom="11.2"
     inkscape:cx="-6.2053571"
     inkscape:cy="10.892857"
     inkscape:document-units="mm"
     inkscape:current-layer="layer1"
     showgrid="false"
     fit-margin-top="0"
     fit-margin-left="0"
     fit-margin-right="0"
     fit-margin-bottom="0"
     inkscape:window-width="1904"
     inkscape:window-height="1041"
     inkscape:window-x="0"
     inkscape:window-y="0"
     inkscape:window-maximized="0"
     inkscape:pagecheckerboard="0" />
  <metadata
     id="metadata111791">
    <rdf:RDF>
      <cc:Work
         rdf:about="">
        <dc:format>image/svg+xml</dc:format>
        <dc:type
           rdf:resource="http://purl.org/dc/dcmitype/StillImage" />
        <dc:title />
      </cc:Work>
    </rdf:RDF>
  </metadata>
  <g
     inkscape:label="Layer 1"
     inkscape:groupmode="layer"
     id="layer1"
     transform="translate(-135.80716,-61.39592)">
    <path
       inkscape:connector-curvature="0"
       style="fill:#1a1a1a;fill-opacity:1;fill-rule:nonzero;stroke:none;stroke-width:0.352778"
       d="m 145.80756,66.395451 c 0,2.761586 -2.23791,5.0009 -4.99949,5.0009 -2.76162,0 -5.00091,-2.239314 -5.00091,-5.0009 0,-2.76159 2.23929,-4.999524 5.00091,-4.999524 2.76158,0 4.99949,2.237934 4.99949,4.999524"
       id="path110594" />
    <path
       id="path110596"
       style="fill:#2e51cf;fill-opacity:1;fill-rule:evenodd;stroke:none;stroke-width:3.26599"
       inkscape:label="path110596"
       d="M 18.898438,0 C 17.604091,1.3161986e-4 16.340379,0.1309878 15.119141,0.37890625 V 19.134766 h 7.5625 V 0.37890625 C 21.460555,0.1309873 20.196674,1.3109381e-4 18.902344,0 c -6.52e-4,-6.606012e-8 -0.0013,0 -0.002,0 -6.55e-4,0 -0.0013,-6.6591628e-8 -0.002,0 z"
       transform="matrix(0.26458333,0,0,0.26458333,135.80716,61.39592)" />
    <path
       inkscape:connector-curvature="0"
       style="fill:#2e51cf;fill-opacity:1;fill-rule:nonzero;stroke:none;stroke-width:0.252135"
       d="m 144.38106,66.395648 c 0,1.973737 -1.59946,3.574201 -3.57319,3.574201 -1.97377,0 -3.57421,-1.600464 -3.57421,-3.574201 0,-1.973742 1.60044,-3.573219 3.57421,-3.573219 1.97373,0 3.57319,1.599477 3.57319,3.573219"
       id="path110594-9" />
  </g>
</svg>
